<svg width="34" height="34" viewBox="0 0 34 34" fill="none" xmlns="http://www.w3.org/2000/svg">
<path d="M20.7598 17L32.2265 5.55999C32.7286 5.05784 33.0107 4.37679 33.0107 3.66665C33.0107 2.95651 32.7286 2.27546 32.2265 1.77332C31.7243 1.27118 31.0433 0.989075 30.3332 0.989075C29.623 0.989075 28.942 1.27118 28.4398 1.77332L16.9998 13.24L5.55984 1.77332C5.05769 1.27118 4.37664 0.989075 3.6665 0.989075C2.95637 0.989075 2.27531 1.27118 1.77317 1.77332C1.27103 2.27546 0.988926 2.95651 0.988926 3.66665C0.988926 4.37679 1.27103 5.05784 1.77317 5.55999L13.2398 17L1.77317 28.44C1.52323 28.6879 1.32484 28.9828 1.18946 29.3078C1.05408 29.6327 0.984375 29.9813 0.984375 30.3333C0.984375 30.6853 1.05408 31.0339 1.18946 31.3589C1.32484 31.6838 1.52323 31.9787 1.77317 32.2266C2.02107 32.4766 2.31601 32.675 2.64097 32.8104C2.96592 32.9457 3.31447 33.0154 3.6665 33.0154C4.01853 33.0154 4.36708 32.9457 4.69204 32.8104C5.017 32.675 5.31193 32.4766 5.55984 32.2266L16.9998 20.76L28.4398 32.2266C28.6877 32.4766 28.9827 32.675 29.3076 32.8104C29.6326 32.9457 29.9811 33.0154 30.3332 33.0154C30.6852 33.0154 31.0337 32.9457 31.3587 32.8104C31.6837 32.675 31.9786 32.4766 32.2265 32.2266C32.4764 31.9787 32.6748 31.6838 32.8102 31.3589C32.9456 31.0339 33.0153 30.6853 33.0153 30.3333C33.0153 29.9813 32.9456 29.6327 32.8102 29.3078C32.6748 28.9828 32.4764 28.6879 32.2265 28.44L20.7598 17Z" fill="white"/>
</svg>
