<svg width="29" height="28" viewBox="0 0 29 28" fill="none" xmlns="http://www.w3.org/2000/svg">
<path d="M12.434 13.1257H1.43748C0.958261 13.1257 0.569336 12.7337 0.569336 12.2507C0.569336 11.7677 0.958261 11.3757 1.43748 11.3757H12.434C12.9132 11.3757 13.3021 11.7677 13.3021 12.2507C13.3021 12.7337 12.9132 13.1257 12.434 13.1257Z" fill="white"/>
<path d="M8.09352 17.5005C7.87118 17.5005 7.64906 17.4153 7.47992 17.2439C7.14081 16.9019 7.14081 16.3478 7.47992 16.006L11.2073 12.2494L7.47992 8.49382C7.14081 8.15181 7.14081 7.59766 7.47992 7.25586C7.81904 6.91406 8.36884 6.91406 8.70817 7.25586L13.0489 11.6309C13.388 11.9727 13.388 12.5269 13.0489 12.8689L8.70817 17.2439C8.53797 17.4153 8.31564 17.5005 8.09352 17.5005Z" fill="white"/>
<path d="M19.0897 28.0005C17.813 28.0005 16.7748 26.9539 16.7748 25.667V4.66636C16.7748 3.66892 17.4045 2.77873 18.342 2.45081L25.2964 0.11391C26.8521 -0.366757 28.35 0.796457 28.35 2.3331V23.3337C28.35 24.3301 27.7203 25.219 26.7839 25.548L19.8271 27.8862C19.5736 27.9655 19.3388 28.0005 19.0897 28.0005ZM26.0349 1.74967C25.9596 1.74967 25.896 1.75907 25.8278 1.78001L18.9024 4.1075C18.6754 4.18697 18.5111 4.41791 18.5111 4.66636V25.667C18.5111 26.065 18.9393 26.3333 19.297 26.2201L26.2224 23.8926C26.4482 23.8131 26.6137 23.5822 26.6137 23.3337V2.3331C26.6137 2.01222 26.3545 1.74967 26.0349 1.74967Z" fill="white"/>
<path d="M10.6977 5.8335C10.2185 5.8335 9.82959 5.44149 9.82959 4.95848V3.20845C9.82959 1.43856 11.2566 0 13.0126 0H26.0348C26.514 0 26.9029 0.392004 26.9029 0.875014C26.9029 1.35802 26.514 1.75003 26.0348 1.75003H13.0126C12.2151 1.75003 11.5659 2.40458 11.5659 3.20845V4.95848C11.5659 5.44149 11.1769 5.8335 10.6977 5.8335Z" fill="white"/>
<path d="M17.6428 24.4998H13.0126C11.2566 24.4998 9.82959 23.0612 9.82959 21.2913V19.5413C9.82959 19.0583 10.2185 18.6663 10.6977 18.6663C11.1769 18.6663 11.5659 19.0583 11.5659 19.5413V21.2913C11.5659 22.0952 12.2151 22.7497 13.0126 22.7497H17.6428C18.1221 22.7497 18.511 23.1417 18.511 23.6247C18.511 24.1078 18.1221 24.4998 17.6428 24.4998Z" fill="white"/>
</svg>
