<svg width="37" height="28" viewBox="0 0 37 28" fill="none" xmlns="http://www.w3.org/2000/svg">
<path d="M28.0953 4.62643C28.3081 4.19744 28.4285 3.71449 28.4285 3.20356C28.4285 1.43712 26.9966 0 25.2365 0C23.4763 0 22.0444 1.43712 22.0444 3.20356C22.0444 3.71449 22.1648 4.19744 22.3776 4.62643C17.3013 5.91014 13.5322 10.5302 13.5322 16.0178C13.5322 22.4947 18.7827 27.7642 25.2365 27.7642C31.6902 27.7642 36.9407 22.4947 36.9407 16.0178C36.9407 10.5302 33.1716 5.91014 28.0953 4.62643ZM24.1724 3.20356C24.1724 2.61474 24.6497 2.1357 25.2365 2.1357C25.8232 2.1357 26.3005 2.61474 26.3005 3.20356C26.3005 3.79237 25.8232 4.27141 25.2365 4.27141C24.6497 4.27141 24.1724 3.79237 24.1724 3.20356ZM26.3005 25.5688V24.5606C26.3005 23.9709 25.8241 23.4928 25.2365 23.4928C24.6488 23.4928 24.1724 23.9709 24.1724 24.5606V25.5688C19.7405 25.0748 16.2119 21.5335 15.7197 17.0856H16.7243C17.3119 17.0856 17.7883 16.6075 17.7883 16.0178C17.7883 15.428 17.3119 14.9499 16.7243 14.9499H15.7197C16.2119 10.502 19.7405 6.96076 24.1724 6.46677V7.47497C24.1724 8.06471 24.6488 8.54282 25.2365 8.54282C25.8241 8.54282 26.3005 8.06471 26.3005 7.47497V6.46677C30.7324 6.96076 34.261 10.5021 34.7532 14.9499H33.7486C33.161 14.9499 32.6846 15.428 32.6846 16.0178C32.6846 16.6075 33.161 17.0856 33.7486 17.0856H34.7532C34.261 21.5335 30.7324 25.0748 26.3005 25.5688Z" fill="white"/>
<path d="M10.3403 4.27173H8.07037C7.48274 4.27173 7.00635 4.74985 7.00635 5.3396C7.00635 5.92935 7.48274 6.40747 8.07037 6.40747H10.3403C10.9279 6.40747 11.4043 5.92935 11.4043 5.3396C11.4043 4.74985 10.9279 4.27173 10.3403 4.27173Z" fill="white"/>
<path d="M10.3399 10.6777H5.94195C5.35433 10.6777 4.87793 11.1558 4.87793 11.7455C4.87793 12.3352 5.35433 12.8132 5.94195 12.8132H10.3399C10.9275 12.8132 11.4039 12.3352 11.4039 11.7455C11.4039 11.1558 10.9275 10.6777 10.3399 10.6777Z" fill="white"/>
<path d="M10.34 17.0854H3.81402C3.2264 17.0854 2.75 17.5636 2.75 18.1533C2.75 18.7431 3.2264 19.2212 3.81402 19.2212H10.34C10.9276 19.2212 11.404 18.7431 11.404 18.1533C11.404 17.5636 10.9276 17.0854 10.34 17.0854Z" fill="white"/>
<path d="M10.3401 23.4932H1.68609C1.09847 23.4932 0.62207 23.9713 0.62207 24.561C0.62207 25.1508 1.09847 25.6289 1.68609 25.6289H10.3401C10.9277 25.6289 11.4041 25.1508 11.4041 24.561C11.4041 23.9713 10.9277 23.4932 10.3401 23.4932Z" fill="white"/>
<path d="M29.4925 14.9491H26.3004V11.7456C26.3004 11.1558 25.824 10.6777 25.2364 10.6777C24.6488 10.6777 24.1724 11.1558 24.1724 11.7456V16.0169C24.1724 16.6066 24.6488 17.0847 25.2364 17.0847H29.4925C30.0801 17.0847 30.5565 16.6066 30.5565 16.0169C30.5565 15.4272 30.0801 14.9491 29.4925 14.9491Z" fill="white"/>
</svg>
