<svg width="29" height="32" viewBox="0 0 29 32" fill="none" xmlns="http://www.w3.org/2000/svg">
<path d="M14.5876 31.8504C14.7542 31.8984 14.9309 31.8984 15.0975 31.8504C23.1587 29.529 28.7613 22.0726 28.7613 13.5674V2.56505C28.7613 2.18148 28.4504 1.87054 28.0668 1.87054H24.7954C24.6102 1.87054 24.4327 1.79661 24.3023 1.66518L22.854 0.20536C22.7236 0.073926 22.5461 0 22.361 0H7.32418C7.13904 0 6.96156 0.0739261 6.83115 0.20536L5.38281 1.66518C5.25241 1.79661 5.07493 1.87054 4.88978 1.87054H1.61834C1.23477 1.87054 0.923828 2.18148 0.923828 2.56505V13.5674C0.923828 22.018 6.47363 29.5138 14.5876 31.8504ZM2.77966 4.43559C2.77966 4.05202 3.09061 3.74107 3.47417 3.74107H5.65847C5.84362 3.74107 6.0211 3.66715 6.1515 3.53571L7.59984 2.0759C7.73024 1.94446 7.90772 1.87054 8.09287 1.87054H21.5923C21.7774 1.87054 21.9549 1.94446 22.0853 2.0759L23.5336 3.53571C23.664 3.66715 23.8415 3.74107 24.0267 3.74107H26.211C26.5945 3.74107 26.9055 4.05202 26.9055 4.43559V13.5674C26.9055 20.9156 22.1913 27.4835 15.3474 29.8133C15.0203 29.9246 14.6648 29.9246 14.3377 29.8133C7.4939 27.4835 2.77966 20.9156 2.77966 13.5674V4.43559Z" fill="white"/>
<path fill-rule="evenodd" clip-rule="evenodd" d="M12.7131 5.05427C11.1407 5.47487 9.85664 6.78545 9.4409 8.3938C9.34947 8.74772 9.31094 9.32021 9.31094 10.3252V11.7537L9.07705 11.8011C8.74619 11.8682 8.16357 12.2826 7.90612 12.6339C7.46869 13.2309 7.41621 13.6398 7.46154 16.0952C7.49727 18.0262 7.52788 18.4261 7.68532 19.018C7.90118 19.8295 8.31735 20.7445 8.78429 21.4344C9.16933 22.0032 10.0953 22.924 10.6994 23.339C12.7027 24.7148 15.5533 24.9458 17.7732 23.9122C19.7648 22.9848 21.2447 21.1963 21.823 19.018C21.9785 18.4322 22.0111 18.0197 22.0469 16.1868C22.0935 13.7976 22.0357 13.292 21.6496 12.7126C21.3857 12.3166 20.7954 11.8749 20.4317 11.8011L20.1978 11.7537L20.1965 10.3715C20.1956 9.44338 20.1531 8.80926 20.067 8.44103C19.6839 6.80302 18.3828 5.4699 16.7565 5.04904C16.0699 4.87135 13.3839 4.87487 12.7131 5.05427ZM16.6607 6.80825C17.278 7.04097 17.9177 7.63137 18.216 8.24337C18.4443 8.71198 18.4554 8.79341 18.4825 10.2108L18.5107 11.6894H14.7544H10.998L11.0262 10.2108C11.0533 8.79341 11.0644 8.71198 11.2927 8.24337C11.5854 7.64277 12.226 7.04405 12.8238 6.81245C13.202 6.66588 13.4775 6.64051 14.7299 6.63665C16.0053 6.63279 16.254 6.65491 16.6607 6.80825ZM20.1591 13.6141C20.3672 13.8238 20.3679 13.8304 20.3679 15.5793C20.3679 16.5444 20.3265 17.6334 20.2761 17.9994C20.0175 19.8729 18.8713 21.4552 17.1784 22.2755C16.2601 22.7204 15.7652 22.8327 14.7289 22.831C13.7335 22.8294 13.0308 22.6613 12.2006 22.226C11.0321 21.6133 10.0701 20.5622 9.58839 19.372C9.24145 18.5147 9.14705 17.7331 9.14381 15.6927L9.14084 13.8244L9.34964 13.6141L9.55836 13.4037H14.7544H19.9503L20.1591 13.6141ZM14.185 16.1818L13.9463 16.3884L13.9192 17.7682L13.8921 19.1479L14.1466 19.4044C14.4789 19.7393 14.9707 19.7599 15.3237 19.454L15.5624 19.2471V17.818V16.3889L15.3237 16.1819C15.0002 15.9015 14.5087 15.9014 14.185 16.1818Z" fill="white"/>
</svg>
