<svg width="16" height="16" viewBox="0 0 16 16" fill="none" xmlns="http://www.w3.org/2000/svg">
<path d="M12.5832 3C13.5498 3 14.3332 3.78333 14.3332 4.75V11.25C14.3332 12.2167 13.5498 13 12.5832 13H3.4165C2.95237 13 2.50726 12.8156 2.17907 12.4874C1.85088 12.1592 1.6665 11.7141 1.6665 11.25V4.75C1.6665 3.78333 2.44984 3 3.4165 3H12.5832ZM13.4998 6.117L8.2005 9.03167C8.14598 9.06165 8.08543 9.07903 8.02331 9.08255C7.96119 9.08607 7.89906 9.07563 7.8415 9.052L7.79917 9.032L2.49984 6.11667V11.25C2.49984 11.4931 2.59641 11.7263 2.76832 11.8982C2.94023 12.0701 3.17339 12.1667 3.4165 12.1667H12.5832C12.8263 12.1667 13.0594 12.0701 13.2314 11.8982C13.4033 11.7263 13.4998 11.4931 13.4998 11.25V6.117ZM12.5832 3.83333H3.4165C3.17339 3.83333 2.94023 3.92991 2.76832 4.10182C2.59641 4.27373 2.49984 4.50688 2.49984 4.75V5.16633L7.99984 8.191L13.4998 5.166V4.75C13.4998 4.50688 13.4033 4.27373 13.2314 4.10182C13.0594 3.92991 12.8263 3.83333 12.5832 3.83333Z" fill="black"/>
</svg>
