<svg width="616" height="566" viewBox="0 0 616 566" fill="none" xmlns="http://www.w3.org/2000/svg">
<g clip-path="url(#clip0_75_1398)">
<path d="M188.064 10.1048C243.077 12.0994 301.402 -9.0086 356.836 5.59636C402.358 17.5886 403.799 66.6702 423.17 97.034C438.569 121.159 467.249 135.838 494.777 149.841C519.494 162.418 545.036 173.883 569.267 187.046C584.922 195.56 615.844 210.387 615.588 227.168C615.341 243.224 590.047 256.708 575.027 265.296C555.483 276.505 534.753 286.264 514.88 297.102C481.429 315.367 456.217 338.016 432.118 364.184C404.698 393.971 378.137 424.31 352.436 455.202C333.486 477.95 314.61 500.863 293.938 522.605C280.961 536.246 256.367 566.544 233.726 565.571C222.924 565.102 211.381 556.126 203.035 550.043C188.896 539.749 176.076 528.185 163.544 516.597C140.211 495.019 118.023 472.625 95.5377 450.454C66.3544 421.673 37.6159 394.136 4.14003 368.454C-30.5058 341.89 -66.3956 316.38 -101.75 290.401C-125.701 272.813 -152.701 255.092 -166.725 230.737C-184.249 200.241 -163.025 176.966 -161.311 147.088C-159.828 121.381 -87.208 126.887 -66.8324 124.62C-46.2344 122.354 -26.7982 116.073 -6.14248 114.293C19.638 112.068 45.8387 113.32 71.7593 113.749C103.472 114.268 133.628 115.356 147.074 88.1985C154.712 72.7611 156.961 55.7659 161.905 39.6361C165.101 29.2099 170.688 9.47838 188.064 10.1048Z" stroke="url(#paint0_linear_75_1398)"/>
<path d="M197.234 23.2345C243.448 22.8224 303.223 9.82464 350.047 27.2484C390.065 42.0841 393.344 82.6269 413.349 110.774C429.827 134.016 458.186 145.39 485.944 157.984C508.19 168.081 530.716 177.922 552.204 189.189C568.04 197.497 594.825 210.313 597.404 226.08C599.728 240.257 574.829 254.103 562.149 261.365C543.643 271.956 523.68 280.816 504.103 290.014C469.721 306.185 438.684 322.982 412.78 347.824C386.876 372.666 366.863 400.573 346.199 428.596C330.025 450.52 313.415 472.279 294.976 492.992C281.249 508.396 263.543 530.642 240.119 536.84C221.581 541.785 192.76 510.77 182.503 501.547C161.41 482.59 141.726 462.579 122.167 442.567C98.3306 418.17 77.675 393.188 50.1807 371.33C1.04211 332.222 -60.9002 298.503 -96.4359 249.562C-117.858 220.039 -122.142 188.167 -117.158 156.764C-115.188 144.327 -93.5029 142.39 -80.9051 141.442C-59.9034 139.852 -38.6627 140.577 -17.6032 139.604C2.10495 138.69 20.9481 135.426 40.3432 133.011C60.0019 130.538 80.0149 130.596 99.7642 129.046C112.024 128.09 126.278 127.258 136.404 120.928C146.892 114.375 151.721 102.952 155.453 92.9048C162.424 74.1211 164.599 23.523 197.234 23.2345Z" stroke="url(#paint1_linear_75_1398)"/>
<path d="M215.698 40.4605C258.229 38.029 311.273 34.2954 349.289 54.6945C380.408 71.3682 385.689 103.908 405.315 127.934C421.629 147.912 448.736 156.501 473.783 167.257C494.331 176.092 514.979 184.961 534.415 195.395C549.172 203.299 569.193 213.528 573.766 228.025C577.663 240.389 556.81 253.139 546.436 259.345C528.755 269.969 509.113 278.376 489.734 286.726C458.021 300.391 424.257 312.738 397.999 333.12C372.523 352.901 356.86 377.182 339.385 401.818C325.988 420.684 312.13 439.402 296.401 457.04C284.331 470.573 269.986 487.379 250.706 493.783C234.071 499.33 215.566 482.063 204.46 473.343C186.127 458.944 169.435 443.144 152.668 427.55C134.542 410.728 118.063 392.257 99.4593 375.921C60.356 341.56 16.5646 313.488 -12.6434 272.071C-31.5936 245.26 -48.1956 209.613 -43.3839 179.257C-39.9152 157.432 19.2754 161.817 38.3162 160.646C69.4439 158.718 102.302 153.641 131.353 144.426C156.236 136.505 164.854 115.183 171.322 95.5011C175.384 83.1379 177.913 70.1567 183.804 58.3293C190.643 44.6721 197.877 41.4825 215.698 40.4605Z" stroke="url(#paint2_linear_75_1398)"/>
<path d="M234.78 56.6313C270.678 55.7082 312.937 58.4116 343.01 77.4261C369.375 94.0916 375.143 121.727 395.518 142.192C411.42 158.157 438.28 165.451 459.9 174.691C486.339 185.974 535.379 202.392 544.269 228.001C552.508 251.82 491.143 273.266 472.777 280.824C443.71 292.808 412.005 302.451 384.972 317.386C361.697 330.252 348.283 348.36 333.889 367.58C315.499 392.076 293.278 429.561 259.209 441.454C233.824 450.322 198.461 415.64 181.76 403.54C164.335 390.914 143.424 381.015 126.657 368.05C100.184 347.577 79.6438 315.523 64.0387 289.124C48.8868 263.458 32.3506 230.284 34.8306 202.145C36.4784 183.65 71.5445 181.861 88.7974 178.754C113.326 174.287 135.431 167.833 152.717 152.478C170.324 136.819 179.198 117.862 187.132 97.7675C191.178 87.4732 194.548 75.6623 202.119 66.6454C210.416 56.6972 220.979 56.9857 234.78 56.6313Z" stroke="url(#paint3_linear_75_1398)"/>
<path d="M254.472 76.1405C285.369 77.7889 318.029 85.2479 340.984 103.595C360.131 118.876 365.652 141.591 385.269 156.286C400.8 167.924 423.079 174.559 441.378 182.744C463.806 192.758 503.123 207.288 509.962 229.723C516.619 251.656 471.682 268.527 453.869 275.928C427.742 286.759 400.199 295.207 374.138 306.152C353.688 314.724 340.242 325.785 326.598 340.719C310.573 358.25 292.562 382.919 267.061 391.441C248.606 397.582 220.51 379.078 204.864 372.13C194.35 367.448 183.656 363.113 172.146 360.451C163.181 358.382 154.843 357.805 147.288 352.712C128.338 339.895 127.077 313.784 121.508 295.841C114.092 272.005 105.647 246.686 105.029 222.091C104.617 206.975 121.928 200.134 134.262 192.123C148.845 182.669 159.688 168.79 170.935 156.756C185.765 140.882 195.43 123.277 205.3 105.062C209.758 96.8198 214.207 87.1601 222.553 81.0362C231.213 74.6651 243.324 75.5305 254.472 76.1405Z" stroke="url(#paint4_linear_75_1398)"/>
<path d="M271.857 96.4735C297.662 100.735 322 111.235 339.566 127.793C353.054 140.494 360.164 156.838 376.643 167.314C391.968 177.073 409.6 184.219 426.078 192.469C443.52 201.206 472.745 214.343 476.7 232.69C480.959 252.471 450.145 265.988 433.073 273.489C411.495 282.959 388.45 289.816 366.204 298.141C350.009 304.206 334.735 312.495 320.822 322.768C306.601 333.293 292.759 347.84 273.677 352.58C256.787 356.758 237.112 346.39 220.312 343.892C202.367 341.23 183.236 343.39 168.265 332.807C137.335 310.982 145.78 260.474 146.53 231.429C147.247 202.739 167.952 180.666 187.676 158.404C200.703 143.692 211.892 128.263 224.102 113.123C236.585 97.6686 249.141 92.7234 271.857 96.4735Z" stroke="url(#paint5_linear_75_1398)"/>
<path d="M285.814 115.249C322.973 125.914 341.593 154.391 369.03 175.416C391.49 192.642 439.063 207.091 444.089 234.479C449.791 265.576 385.063 280.808 359.909 290.278C332.011 300.778 308.743 320.773 279.404 328.142C263.996 332.007 250.031 327.318 234.986 324.128C218.467 320.609 201.543 317.74 188.599 307.776C163.124 288.16 165.076 252.405 165.628 226.616C166.197 199.92 185.444 177.238 204.542 156.888C224.761 135.343 247.707 104.328 285.814 115.249Z" stroke="url(#paint6_linear_75_1398)"/>
<path d="M295.28 130.497C321.572 141.739 342.31 163.655 362.018 181.598C378.455 196.565 412.195 213.453 413.587 235.097C415.235 260.524 377.639 274.024 354.561 282.901C331.879 291.588 307.738 304.537 283.111 308.757C257.454 313.15 224.028 296.393 206.783 281.146C187.553 264.134 181.456 237.561 183.367 215.11C185.345 191.604 202.968 170.825 221.012 153.838C240.325 135.632 264.795 117.425 295.28 130.497Z" stroke="url(#paint7_linear_75_1398)"/>
<path d="M299.639 144.426C321.448 155.001 339.484 172.35 355.542 188.323C367.942 200.686 389.15 218.984 388.861 235.864C388.532 254.433 369.236 269.227 349.882 275.656C330.8 281.994 306.939 288.489 286.341 288.555C241.487 288.704 193.757 238.122 199.623 202.211C205.185 168.171 256.194 123.334 299.639 144.426Z" stroke="url(#paint8_linear_75_1398)"/>
<path d="M301.468 157.185C329.852 171.691 369.656 205.483 369.186 234.916C368.634 268.708 322.165 274.882 289.01 268.824C255.172 262.675 207.805 221.341 216.003 190.664C224.003 160.737 267.819 140 301.468 157.185Z" stroke="url(#paint9_linear_75_1398)"/>
<path d="M305.505 170.776C329.259 183.048 358.442 208.162 358.137 232.831C357.775 262.222 318.927 259.741 295.058 251.886C270.274 243.718 228.872 211.121 236.922 185.768C244.774 161.124 282.732 159.023 305.505 170.776Z" stroke="url(#paint10_linear_75_1398)"/>
<path d="M307.722 182.546C324.703 190.713 345.713 210.074 345.557 227.481C345.342 248.762 314.717 243.141 300.101 236.877C282.716 229.46 253.03 206.093 258.905 187.994C264.73 170.174 293.732 175.812 307.722 182.546Z" stroke="url(#paint11_linear_75_1398)"/>
</g>
<defs>
<linearGradient id="paint0_linear_75_1398" x1="-174" y1="283" x2="616" y2="283" gradientUnits="userSpaceOnUse">
<stop stop-color="#4DA5DD"/>
<stop offset="1" stop-color="#47A6E0" stop-opacity="0"/>
</linearGradient>
<linearGradient id="paint1_linear_75_1398" x1="2.14795e+06" y1="298189" x2="2.77192e+06" y2="298189" gradientUnits="userSpaceOnUse">
<stop stop-color="#4DA5DD"/>
<stop offset="1" stop-color="#47A6E0" stop-opacity="0"/>
</linearGradient>
<linearGradient id="paint2_linear_75_1398" x1="1.91007e+06" y1="255989" x2="2.37493e+06" y2="255989" gradientUnits="userSpaceOnUse">
<stop stop-color="#4DA5DD"/>
<stop offset="1" stop-color="#47A6E0" stop-opacity="0"/>
</linearGradient>
<linearGradient id="paint3_linear_75_1398" x1="1.62535e+06" y1="208804" x2="1.94208e+06" y2="208804" gradientUnits="userSpaceOnUse">
<stop stop-color="#4DA5DD"/>
<stop offset="1" stop-color="#47A6E0" stop-opacity="0"/>
</linearGradient>
<linearGradient id="paint4_linear_75_1398" x1="1.32627e+06" y1="165352" x2="1.52636e+06" y2="165352" gradientUnits="userSpaceOnUse">
<stop stop-color="#4DA5DD"/>
<stop offset="1" stop-color="#47A6E0" stop-opacity="0"/>
</linearGradient>
<linearGradient id="paint5_linear_75_1398" x1="1.10232e+06" y1="131708" x2="1.23657e+06" y2="131708" gradientUnits="userSpaceOnUse">
<stop stop-color="#4DA5DD"/>
<stop offset="1" stop-color="#47A6E0" stop-opacity="0"/>
</linearGradient>
<linearGradient id="paint6_linear_75_1398" x1="933091" y1="109678" x2="1.0279e+06" y2="109678" gradientUnits="userSpaceOnUse">
<stop stop-color="#4DA5DD"/>
<stop offset="1" stop-color="#47A6E0" stop-opacity="0"/>
</linearGradient>
<linearGradient id="paint7_linear_75_1398" x1="776008" y1="92099.7" x2="840785" y2="92099.7" gradientUnits="userSpaceOnUse">
<stop stop-color="#4DA5DD"/>
<stop offset="1" stop-color="#47A6E0" stop-opacity="0"/>
</linearGradient>
<linearGradient id="paint8_linear_75_1398" x1="642216" y1="74418.7" x2="686097" y2="74418.7" gradientUnits="userSpaceOnUse">
<stop stop-color="#4DA5DD"/>
<stop offset="1" stop-color="#47A6E0" stop-opacity="0"/>
</linearGradient>
<linearGradient id="paint9_linear_75_1398" x1="524722" y1="59297.8" x2="553707" y2="59297.8" gradientUnits="userSpaceOnUse">
<stop stop-color="#4DA5DD"/>
<stop offset="1" stop-color="#47A6E0" stop-opacity="0"/>
</linearGradient>
<linearGradient id="paint10_linear_75_1398" x1="419325" y1="46078.4" x2="437584" y2="46078.4" gradientUnits="userSpaceOnUse">
<stop stop-color="#4DA5DD"/>
<stop offset="1" stop-color="#47A6E0" stop-opacity="0"/>
</linearGradient>
<linearGradient id="paint11_linear_75_1398" x1="302299" y1="32841.1" x2="311658" y2="32841.1" gradientUnits="userSpaceOnUse">
<stop stop-color="#4DA5DD"/>
<stop offset="1" stop-color="#47A6E0" stop-opacity="0"/>
</linearGradient>
<clipPath id="clip0_75_1398">
<rect width="790" height="566" fill="white" transform="translate(-174)"/>
</clipPath>
</defs>
</svg>
