<svg width="951" height="442" viewBox="0 0 951 442" fill="none" xmlns="http://www.w3.org/2000/svg">
<g clip-path="url(#clip0_75_1381)">
<path d="M0.5 411.1C0.8 391.62 31.5 375.26 49.73 364.84C73.45 351.24 98.6097 339.4 122.68 326.25C163.28 304.09 193.88 276.61 223.13 244.86C256.41 208.72 288.647 171.907 319.84 134.42C342.84 106.83 365.75 79.03 390.84 52.65C406.6 36.1 436.44 -0.660004 463.92 0.519996C477.03 1.09 491.04 11.98 501.18 19.36C518.33 31.85 533.89 45.88 549.1 59.94C577.42 86.12 604.36 113.29 631.64 140.19C667.06 175.11 701.94 208.52 742.57 239.68C784.62 271.91 828.18 302.86 871.09 334.38C900.16 355.72 932.93 377.22 949.95 406.77" stroke="url(#paint0_linear_75_1381)"/>
<path d="M22.5897 412.42C19.7697 395.22 49.9897 378.42 65.3797 369.61C87.8397 356.76 112.07 346.01 135.83 334.85C177.57 315.23 215.23 294.85 246.67 264.71C278.11 234.57 302.4 200.71 327.49 166.71C347.11 140.11 367.27 113.71 389.65 88.58C406.32 69.89 427.8 42.8999 456.24 35.3799C478.73 29.3799 513.71 67.01 526.16 78.2C551.76 101.2 575.65 125.48 599.39 149.76C628.32 179.36 653.39 209.67 686.76 236.19C746.4 283.64 821.58 324.55 864.71 383.93" stroke="url(#paint1_linear_75_1381)"/>
<path d="M51.2703 410.06C46.5303 395.06 71.8399 379.59 84.4299 372.06C105.89 359.17 129.73 348.97 153.25 338.84C191.74 322.26 232.72 307.28 264.59 282.55C295.51 258.55 314.52 229.09 335.73 199.2C351.99 176.31 368.82 153.6 387.91 132.2C402.55 115.79 419.96 95.4 443.36 87.63C463.55 80.9 486.01 101.85 499.49 112.43C521.74 129.9 542 149.07 562.35 167.99C584.35 188.4 604.35 210.81 626.94 230.63C674.39 272.32 727.54 306.37 762.94 356.63" stroke="url(#paint2_linear_75_1381)"/>
<path d="M87.06 410.1C77.06 381.2 151.54 355.18 173.83 346C209.11 331.47 247.59 319.77 280.4 301.65C308.65 286.04 324.93 264.07 342.4 240.75C364.72 211.03 391.69 165.55 433.04 151.12C463.85 140.36 506.77 182.44 527.04 197.12C548.19 212.44 573.57 224.45 593.93 240.18C626.05 265.02 650.98 303.91 669.93 335.94C688.32 367.08 708.39 407.33 705.38 441.47" stroke="url(#paint3_linear_75_1381)"/>
<path d="M128.67 407.96C120.59 381.35 175.13 360.88 196.76 351.9C228.46 338.76 261.89 328.51 293.52 315.23C318.34 304.83 334.66 291.41 351.22 273.29C370.67 252.02 392.53 222.09 423.48 211.75C445.88 204.3 479.98 226.75 498.97 235.18C511.73 240.86 524.71 246.12 538.68 249.35C549.56 251.86 559.68 252.56 568.86 258.74C591.86 274.29 593.38 305.97 600.14 327.74C609.14 356.66 619.4 387.38 620.14 417.22" stroke="url(#paint4_linear_75_1381)"/>
<path d="M169.05 404.38C163.89 380.38 201.28 363.98 222 354.88C248.19 343.39 276.16 335.07 303.17 324.97C322.822 317.617 341.356 307.567 358.24 295.11C375.5 282.34 392.31 264.69 415.46 258.94C435.97 253.86 459.85 266.45 480.23 269.48C502.02 272.71 525.23 270.09 543.4 282.93C580.94 309.41 570.7 370.69 569.78 405.93" stroke="url(#paint5_linear_75_1381)"/>
<path d="M208.66 402.19C201.73 364.46 280.29 345.98 310.82 334.49C344.69 321.75 372.92 297.49 408.54 288.55C427.23 283.86 444.18 289.55 462.44 293.42C482.44 297.69 503.03 301.17 518.75 313.26C549.66 337.06 547.29 380.44 546.62 411.73" stroke="url(#paint6_linear_75_1381)"/>
<path d="M245.65 401.5C243.65 370.65 289.28 354.27 317.3 343.55C344.82 333.01 374.12 317.3 404.01 312.18C435.15 306.85 475.72 327.18 496.65 345.68C519.99 366.32 527.39 398.56 525.07 425.8" stroke="url(#paint7_linear_75_1381)"/>
<path d="M275.69 400.55C276.08 378.02 299.5 360.07 322.99 352.27C346.16 344.58 375.11 336.7 400.11 336.62C454.55 336.44 512.48 397.81 505.36 441.37" stroke="url(#paint8_linear_75_1381)"/>
</g>
<defs>
<linearGradient id="paint0_linear_75_1381" x1="950.4" y1="205.55" x2="2.26656e-05" y2="205.55" gradientUnits="userSpaceOnUse">
<stop stop-color="#4DA5DD"/>
<stop offset="1" stop-color="#47A6E0" stop-opacity="0"/>
</linearGradient>
<linearGradient id="paint1_linear_75_1381" x1="4.16651e+06" y1="741322" x2="4.87675e+06" y2="741322" gradientUnits="userSpaceOnUse">
<stop stop-color="#4DA5DD"/>
<stop offset="1" stop-color="#47A6E0" stop-opacity="0"/>
</linearGradient>
<linearGradient id="paint2_linear_75_1381" x1="3.59568e+06" y1="627519" x2="4.10367e+06" y2="627519" gradientUnits="userSpaceOnUse">
<stop stop-color="#4DA5DD"/>
<stop offset="1" stop-color="#47A6E0" stop-opacity="0"/>
</linearGradient>
<linearGradient id="paint3_linear_75_1381" x1="3.16315e+06" y1="552468" x2="3.54757e+06" y2="552468" gradientUnits="userSpaceOnUse">
<stop stop-color="#4DA5DD"/>
<stop offset="1" stop-color="#47A6E0" stop-opacity="0"/>
</linearGradient>
<linearGradient id="paint4_linear_75_1381" x1="2.55554e+06" y1="387767" x2="2.79838e+06" y2="387767" gradientUnits="userSpaceOnUse">
<stop stop-color="#4DA5DD"/>
<stop offset="1" stop-color="#47A6E0" stop-opacity="0"/>
</linearGradient>
<linearGradient id="paint5_linear_75_1381" x1="2.11254e+06" y1="275063" x2="2.27549e+06" y2="275063" gradientUnits="userSpaceOnUse">
<stop stop-color="#4DA5DD"/>
<stop offset="1" stop-color="#47A6E0" stop-opacity="0"/>
</linearGradient>
<linearGradient id="paint6_linear_75_1381" x1="1.78328e+06" y1="229830" x2="1.89835e+06" y2="229830" gradientUnits="userSpaceOnUse">
<stop stop-color="#4DA5DD"/>
<stop offset="1" stop-color="#47A6E0" stop-opacity="0"/>
</linearGradient>
<linearGradient id="paint7_linear_75_1381" x1="1.47964e+06" y1="208417" x2="1.55826e+06" y2="208417" gradientUnits="userSpaceOnUse">
<stop stop-color="#4DA5DD"/>
<stop offset="1" stop-color="#47A6E0" stop-opacity="0"/>
</linearGradient>
<linearGradient id="paint8_linear_75_1381" x1="1.22188e+06" y1="188607" x2="1.27513e+06" y2="188607" gradientUnits="userSpaceOnUse">
<stop stop-color="#4DA5DD"/>
<stop offset="1" stop-color="#47A6E0" stop-opacity="0"/>
</linearGradient>
<clipPath id="clip0_75_1381">
<rect width="950.4" height="441.49" fill="white"/>
</clipPath>
</defs>
</svg>
