<svg width="1572" height="1487" viewBox="0 0 1572 1487" fill="none" xmlns="http://www.w3.org/2000/svg">
<g clip-path="url(#clip0_440_8685)">
<path d="M928.481 533.352C945.353 529.267 958.168 499.023 965.387 485.686C979.572 459.341 992.075 432.474 1004.91 405.746C1017.75 379.019 1030.52 352.254 1045.37 326.147C1055.01 309.179 1065.72 289.425 1081.97 275.625C1116.59 246.215 1125.77 310.791 1130.52 326.955C1142.63 368.07 1152.98 416.07 1182.78 450.218C1200.56 470.608 1223.3 475.013 1252.04 462.886C1261.39 458.957 1271.46 451.515 1281.91 453.311C1293.06 455.214 1301.25 463.737 1307.15 471.079C1328.58 497.756 1338.46 531.946 1347.81 563.342C1357.96 597.219 1365.61 631.964 1373.89 665.995C1377.39 680.426 1387.32 694.007 1395.74 706.545C1406.78 722.975 1418.6 738.991 1430.19 755.138C1455.63 790.656 1482.23 827.18 1496.22 867.834C1504.98 893.304 1508.29 922.624 1490.84 948.172C1482.08 961.005 1466.73 970.294 1453.35 979.672C1437.21 991.034 1420.82 1002.15 1405.07 1013.91C1354.33 1051.76 1307.36 1099.75 1318.03 1156.98C1319.65 1165.63 1323.01 1173.71 1325.29 1182.16C1326.75 1187.55 1326.29 1192.75 1319.84 1196.42C1303.63 1205.63 1272.45 1196.21 1257.11 1192.95C1223.54 1185.83 1190.88 1176.56 1157.71 1168.48C1135.78 1163.13 1104.94 1152.19 1081.13 1157.66C1059.88 1162.54 1050.1 1189.24 1042.66 1204.28C1035.7 1218.37 1027.11 1242.94 1007.55 1248.95C998.073 1251.86 988.855 1248.56 981.366 1244.6C968.268 1237.66 958.021 1228.51 943.624 1222.88C920.02 1213.7 889.322 1208.56 862.456 1216.96C843.843 1222.79 833.575 1234.58 824.373 1248.66C820.51 1254.58 817.903 1259.25 809.874 1261.43C797.119 1264.89 782.55 1264 769.843 1263.44C724.325 1261.43 679.01 1253.98 635.968 1243.95C614.447 1238.93 592.812 1233.14 573.387 1224.32C560.639 1218.58 545.143 1210.38 542.137 1197.68C538.641 1182.96 541.388 1165.87 542.862 1150.42C545.569 1121.57 549.763 1092.7 554.254 1063.87C564.643 997.212 577.184 930.642 591.877 864.163C602.264 817.326 612.459 769.6 630.145 723.662C633.713 714.536 638.188 705.79 643.503 697.557C649.145 688.607 650.306 678.892 650.602 669.259C652.458 609.426 626.126 550.625 605.37 495.924C600.112 482.033 594.838 468.156 590.114 454.09C586.06 442.002 579.337 427.951 581.302 414.83C585.157 388.92 625.006 401.287 641.319 406.646C698.754 425.503 750.603 455.126 802.641 481.634C827.423 494.256 852.168 506.974 877.876 518.298C891.244 524.315 913.699 536.925 928.481 533.352Z" stroke="url(#paint0_linear_440_8685)"/>
<path d="M933.851 543.274C949.473 529.598 958.736 509.907 967.897 493.21C981.084 469.184 993.128 444.765 1005.73 420.551C1017.66 397.639 1029.75 374.659 1044.24 352.627C1053.07 339.197 1063.47 322.479 1079.11 313.416C1112.99 293.714 1121.55 354.314 1125.98 368.718C1137 404.542 1147.35 445.667 1174.57 474.757C1191.57 492.921 1213.52 496.82 1240.12 485.761C1249.3 481.937 1256.8 477.206 1267.14 478.475C1279.13 479.948 1288.22 487.717 1295.11 495.186C1316.7 518.575 1327.52 549.717 1337.16 578.331C1347.12 607.908 1356.56 638.94 1361.54 668.672C1363.52 680.571 1371.3 692.944 1377.56 703.674C1387.21 720.205 1397.66 736.357 1407.68 752.704C1428.06 785.929 1448.24 820.228 1458.44 857.376C1465.82 884.213 1467.46 913.632 1453.22 940.815C1438.77 968.359 1410.38 985.805 1384.12 1005.43C1338.7 1039.32 1284.18 1083.47 1285.51 1136.58C1285.71 1144.63 1288.34 1151.81 1289.76 1159.54C1290.5 1163.53 1290.93 1168.16 1286.66 1171.29C1275.59 1179.4 1249.72 1170.54 1239.16 1168C1209.97 1160.98 1181.67 1152.02 1152.83 1144.26C1129.94 1138.09 1104.09 1129.5 1079.07 1130.97C1048.67 1132.74 1035.93 1171.4 1018.25 1188.14C987.516 1217.16 957.946 1183.01 936.401 1167.88C911.661 1150.47 871.763 1140.72 846.29 1167.65C836.553 1177.95 831.887 1188.9 817.643 1195.81C795.31 1206.71 767.499 1209.11 743.209 1210.35C706.688 1212.22 669.651 1210.24 634.73 1203.87C609.721 1199.3 570.302 1191.24 567.171 1166.45C565.072 1149.75 567.631 1131.66 569.596 1114.45C572.547 1088.68 576.761 1062.93 581.387 1037.2C591.996 977.843 605.153 918.509 621.135 859.601C632.048 819.409 687.618 701.308 688.669 693.164C691.792 668.894 684.285 643.928 677.517 621.279C668.526 591.145 656.808 561.833 645.415 532.408C640.008 518.428 634.158 504.52 629.721 490.173C626.571 479.993 622.756 466.551 627.936 455.752C638.048 434.662 675.487 446.568 691.283 451.416C739.706 466.275 784.012 489.092 828.669 509.739C850.594 519.878 872.536 530.238 895.647 538.673C904.857 542.245 924.204 551.736 933.851 543.274Z" stroke="url(#paint1_linear_440_8685)"/>
<path d="M946.122 554.153C975.74 519.881 993.868 477.997 1016.43 440.216C1027.75 421.246 1039.46 402.08 1054.16 384.546C1061.81 375.43 1071.49 364.01 1084.11 359.602C1117.89 347.805 1125.91 402.355 1131.03 418.034C1140.94 448.344 1151.18 482.818 1175.52 506.663C1190.39 521.224 1210.13 525.456 1232.67 516.708C1242.68 512.854 1250.93 508.564 1261.94 509.753C1272.95 510.941 1282.18 516.925 1289.47 523.391C1310.41 541.982 1322.01 568.506 1331.71 592.738C1343.04 621.1 1351.8 650.419 1357.9 680.345C1363.25 706.524 1378.76 730.154 1390.96 754.055C1407.12 785.72 1422.39 818.239 1429.49 852.888C1435.09 880.25 1434.88 909.228 1422.51 936.696C1409.91 964.621 1386.02 985.289 1359.63 1005.03C1319.76 1034.95 1265.89 1073.22 1259.09 1119.65C1258.1 1126.4 1259.19 1132.22 1260.28 1138.68C1260.81 1141.82 1261.69 1145.83 1258.13 1148.29C1249.53 1154.24 1227.93 1144.97 1220.6 1142.69C1197.29 1135.41 1174.64 1126.89 1151.52 1119.23C1129.94 1112.09 1107.32 1104.1 1083.56 1102.17C1045.7 1099.02 1033.9 1140.65 1000.19 1147.58C979.258 1151.88 960.482 1139.12 947.097 1128.66C930.645 1115.78 916.867 1094.87 891.84 1092.42C873.202 1090.6 865.422 1102.26 854.019 1112.55C834.751 1129.96 804.916 1137.93 778.977 1142.76C743.917 1149.3 707.172 1151.01 672.606 1147.26C656.952 1145.56 640.436 1142.85 627.024 1136.26C614.451 1130.09 609.805 1122.52 609.195 1110.43C607.357 1073.39 617.231 1033.2 625.556 995.278C635.984 947.196 649.052 899.723 664.699 853.077C675.546 821.035 687.265 788.127 705.592 757.904C710.369 750.036 715.654 741.87 722.858 735.233C728.259 730.225 733.07 727.541 735.209 720.705C741.578 700.58 732.991 676.741 727.399 658.131C718.476 628.365 706.68 599.434 695.357 570.442C688.737 553.529 673.154 522.394 688.396 504.004C701.572 488.122 732.402 496.171 748.276 500.251C788.472 510.562 825.588 527.303 863.217 542.071C880.458 548.832 897.915 555.983 916.401 560.597C921.105 561.769 927.494 563.924 932.728 563.308C938.75 562.548 942.463 558.361 946.122 554.153Z" stroke="url(#paint2_linear_440_8685)"/>
<path d="M938.321 558.348C964.272 527.022 983.414 492.162 1006.88 459.575C1017.41 444.963 1028.58 430.082 1042.67 417.502C1050.26 410.733 1060.03 403.144 1071.18 401.853C1103.11 398.232 1110.75 442.801 1116.8 460.126C1125.74 485.855 1135.64 515.536 1157.92 534.882C1172.51 547.559 1190.07 549.44 1210.27 541.62C1231.93 533.231 1249.82 536.207 1266.02 548.822C1286.32 564.637 1298.57 587.779 1308.49 609.389C1320.39 635.307 1329.39 662.454 1335.35 690.341C1341.12 717.417 1352.84 742.198 1362.78 768.098C1375.96 802.433 1387.03 838.478 1385.62 875.857C1384.41 908.4 1372.28 940.418 1348.35 967.907C1323.36 996.659 1287.96 1016.38 1258.81 1041.84C1240.62 1057.71 1216.75 1079.5 1213.54 1101.86C1212.46 1109.31 1219.06 1120.87 1204.5 1118.58C1196.17 1117.23 1188.15 1113.03 1180.85 1109.91C1169.06 1104.84 1157.5 1099.49 1145.83 1094.29C1120.94 1083.19 1095.33 1071.05 1067.53 1064.91C1032.51 1057.15 1013.73 1085.52 981.252 1090.34C963.767 1092.93 947.771 1086.42 934.585 1078.66C926.241 1073.63 918.312 1067.94 910.875 1061.64C903.149 1055.25 896.489 1047.09 887.237 1042.08C874.127 1034.96 862.339 1042.21 848.805 1047.34C824.954 1056.4 800.248 1063.01 775.064 1067.09C744.197 1072.09 711.751 1074.34 681.58 1069.98C669.835 1068.27 657.175 1065.6 648.076 1059.32C638.977 1053.05 637.509 1044.65 637.501 1035.01C637.449 1006.32 645.903 975.667 653.893 946.534C663.907 909.62 676.465 873.444 691.476 838.263C702.04 813.726 713.83 788.823 730.735 766.408C735.662 759.672 741.263 753.455 747.45 747.853C751.84 743.98 757.976 741.015 760.823 736.221C769.7 721.277 760.394 697.723 756.327 683.646C748.199 655.537 735.06 629.103 726.724 601.093C722.182 585.803 714.243 562.05 727.643 546.839C740.23 532.536 766.372 536.519 782.488 539.48C814.161 545.235 843.733 556.039 873.986 564.804C886.437 568.415 899.531 572.482 913.03 573.561C925.058 574.482 931.655 566.378 938.321 558.348Z" stroke="url(#paint3_linear_440_8685)"/>
<path d="M939.2 564.325C962.508 538.754 981.765 510.036 1005.49 484.228C1019.39 469.12 1042.64 443.263 1068.03 446.35C1095.93 449.727 1104.49 482.601 1111.1 501.21C1118.96 523.36 1128.68 549.251 1149.32 564.902C1155.84 569.851 1163.78 573.498 1173.14 573.619C1183.15 573.747 1190.8 569.182 1200.17 566.597C1219.84 561.17 1238.09 567.069 1252.06 577.313C1271.84 591.777 1284.55 612.728 1294.73 632.947C1306.21 655.723 1314.94 679.785 1320.72 704.626C1326.25 728.278 1332.47 751.512 1338.81 774.994C1347.15 805.702 1353.03 837.46 1350.15 869.904C1347.29 901.821 1335.15 933.106 1312.92 960.707C1291.22 987.632 1262.01 1009.26 1231.8 1029.31C1214.65 1040.68 1189.34 1059.03 1183.75 1077.77C1181.28 1086.1 1183.27 1093.22 1170.43 1088.04C1154.26 1081.52 1140.01 1070.94 1125.47 1062.4C1104.5 1050.07 1083.09 1037.42 1059.5 1028.49C1044.45 1022.79 1030.93 1021.87 1014.28 1026.46C1001.61 1029.97 989.451 1035.1 976.36 1037.09C945.601 1041.75 920.327 1027.21 897.003 1014.6C881.994 1006.48 870.152 998.63 851.189 997.12C828.776 995.338 805.463 997.899 782.79 998.535C757.889 999.243 731.848 999.405 708.383 993.585C687.494 988.405 676.372 978.712 677.229 960.03C678.554 930.909 691.404 899.456 703.457 871.011C715.705 842.066 730.319 813.008 750.353 786.67C761.177 772.445 775.174 761.169 787.265 747.954C802.47 731.322 788.97 705.106 783.505 688.914C774.421 662.037 734.786 580.098 798.443 573.386C825.02 570.585 851.928 578.047 876.955 582.222C887.331 583.926 900.072 587.009 911.073 585.339C923.082 583.47 932.18 572.014 939.2 564.325Z" stroke="url(#paint4_linear_440_8685)"/>
<path d="M939.212 574.888C960.973 554.394 980.664 531.423 1004.94 512.521C1020.65 500.264 1042.33 486.745 1063.44 492.672C1087.29 499.401 1098.33 524.073 1105.55 542.493C1112.95 561.428 1120.86 584.256 1140.64 596.502C1146.93 600.384 1154.79 602.951 1163.19 601.784C1171.24 600.66 1178.61 596.666 1186.79 595.456C1205.17 592.754 1222.13 598.17 1235.64 607.142C1275.58 633.682 1294.73 682.76 1305.35 723.723C1310.66 744.219 1313.53 765.934 1316.91 787.039C1321.29 814.414 1323.37 842.395 1319.03 870.533C1309.81 930.363 1269.3 978.624 1214.14 1018.73C1196.77 1031.34 1177.39 1042.46 1164.89 1058.74C1158.43 1067.13 1152.36 1067.11 1143.47 1062.14C1129.6 1054.47 1117.88 1043.89 1105.62 1034.63C1088.19 1021.46 1070.49 1008.02 1050.83 997.364C1037.28 990.037 1024.83 985.51 1007.57 987.339C995.254 988.645 983.164 991.897 970.928 993.832C947.675 997.508 923.587 996.884 902.112 990.731C885.087 985.844 869.043 979.009 853.559 971.69C833.506 962.092 812.516 954.59 790.922 949.303C761.068 942.009 707.433 934.531 712.785 899.318C718.694 860.498 747.212 818.642 777.098 787.532C787.125 777.061 800.173 767.364 806.465 754.995C815.854 736.485 811.68 720.966 807.298 702.655C800.693 675.237 779.234 617.275 829.239 604.675C849.053 599.696 869.524 602.269 889.442 601.093C911.763 599.926 924.397 588.905 939.212 574.888Z" stroke="url(#paint5_linear_440_8685)"/>
<path d="M939.53 586.212C968.985 564.075 1015.32 519.115 1057.66 534.854C1080.04 543.163 1092.72 564.262 1101.6 582.379C1108.76 596.963 1114.49 615.231 1132.08 623.343C1145.02 629.306 1159.95 621.742 1174.4 621.77C1192.29 621.818 1208.35 627.865 1221.48 636.86C1258.19 662.065 1277.7 704.493 1288.78 742.613C1300.3 782.21 1301.59 828.597 1292.85 870.471C1281.94 922.746 1248.51 967.901 1201.43 1005.12C1192.73 1011.99 1183.69 1018.5 1174.84 1025.22C1168.89 1029.73 1163.51 1035.61 1157.08 1039.58C1146.35 1046.19 1135.76 1043.89 1126.45 1038.46C1113.05 1030.61 1102.22 1019.61 1091.2 1009.64C1076.11 996.016 1061.13 981.976 1044.36 969.951C1033.1 961.897 1021.02 953.473 1004.79 953.483C993.727 953.489 982.5 955.612 971.676 958.278C948.455 964.013 929.403 967.486 905.979 963.657C867.52 957.336 830.713 942.309 798.886 924.758C773.899 910.977 734.978 889.039 742.242 858.578C748.738 831.258 774.769 809.985 794.744 788.253C804.46 777.684 812.943 766.388 818.708 754.125C825.985 738.646 827.433 725.373 825.46 709.563C822.147 682.944 813.594 643.665 849.659 626.621C862.942 620.331 877.881 618.563 891.711 613.634C909.997 607.135 924.68 597.378 939.53 586.212Z" stroke="url(#paint6_linear_440_8685)"/>
<path d="M941.84 601.395C975.36 582.646 1017.47 558.471 1055.28 575.51C1073.6 583.762 1086.24 598.489 1096.57 613.19C1103.97 623.729 1109.73 641.875 1125.67 645.624C1137.4 648.37 1152.03 645.653 1164.39 647.723C1180.6 650.45 1195.95 656.91 1209.22 666.592C1242.34 690.578 1261.7 727.457 1273.09 762.598C1297.83 838.926 1267.05 929.91 1195.33 990.961C1173.96 1009.17 1151.87 1031.35 1122.24 1017.21C1089.91 1001.75 1069.36 971.766 1043.87 950.207C1034.14 941.959 1022.27 931.334 1007.63 928.934C998.82 927.484 988.719 929.647 979.876 931.587C957.329 936.521 936.775 939.799 914.073 937.383C878.986 933.66 844.795 922.594 815.415 907.74C789.807 894.81 758.642 875.149 767.787 845.312C774.853 822.482 796.903 803.792 811.693 783.815C828.163 761.592 836.941 736.857 838.126 711.706C839.259 687.249 837.723 661.085 862.799 642.375C871.406 635.952 882.787 628.676 893.031 624.601C909.81 617.985 926.118 610.232 941.84 601.395V601.395Z" stroke="url(#paint7_linear_440_8685)"/>
<path d="M945.553 618.059C980.729 604.711 1018.45 595.184 1052.28 610.302C1068.06 617.357 1080.61 628.04 1092.31 639.075C1100.93 647.193 1108.62 655.861 1120.69 660.585C1131.87 664.963 1144.22 667.368 1155.59 671.455C1170.22 676.596 1183.93 684.055 1196.19 693.547C1225.79 716.76 1244.73 749.06 1256.35 781.508C1261.99 797.215 1267.09 814.486 1266 831.678C1264.95 848.281 1261.11 865.356 1255.79 881.656C1244.48 916.305 1223.61 948.967 1193.88 976.152C1173.47 994.77 1152.3 1007.26 1124.44 996.047C1093.05 983.459 1071.11 957.118 1047.82 936.677C1031.86 922.662 1015.63 906.551 989.457 909.451C968.631 911.731 948.952 914.282 928.287 912.342C897.78 909.392 868.864 901.296 843.224 888.452C819.853 876.722 798.404 859.939 803.237 834.047C807.076 813.534 822.153 794.739 831.514 775.386C841.986 753.813 845.406 732.025 846.98 709.574C848.426 689.379 853.283 669.543 869.681 652.819C873.081 649.209 876.749 645.86 880.652 642.8C885.692 639.021 891.304 637.889 897.535 635.897C913.836 630.693 929.639 624.104 945.553 618.059Z" stroke="url(#paint8_linear_440_8685)"/>
<path d="M952.875 635.665C987.445 627.867 1021.65 626.908 1052.95 639.127C1066.33 644.348 1078.05 651.59 1090.67 657.836C1100.84 662.866 1110.31 667.646 1119.23 674.08C1140.37 689.356 1165.53 699.878 1185.13 716.791C1211.35 739.383 1229.68 768.047 1241.41 797.961C1247.14 812.594 1251.6 828.046 1252.83 843.931C1253.89 857.571 1249.63 871.889 1244.99 885.334C1235.9 911.69 1220.53 938.833 1197.92 959.923C1148.09 1006.41 1090.82 951.745 1058.4 924.414C1043.48 911.848 1024.87 891.671 1001.03 890.721C983.982 890.014 967.094 891.149 950.258 889.124C905.01 883.559 848.659 863.821 845.232 820.473C843.756 801.921 851.175 782.936 854.794 764.432C858.517 745.407 858.649 726.605 859.175 707.595C859.674 689.829 862.847 675.015 877.308 660.176C884.219 653.085 894.059 651.224 903.927 648.392C920.155 643.747 936.498 639.371 952.875 635.665Z" stroke="url(#paint9_linear_440_8685)"/>
<path d="M961.256 651.292C1014.89 645.625 1077.65 657.098 1116.58 686.54C1162.39 721.215 1203.45 760.832 1224.31 810.319C1233.98 833.265 1242.16 858.951 1234.49 884.63C1228.65 904.149 1218.55 927.605 1199.93 942.011C1154.4 977.258 1101.55 935.527 1070.98 911.869C1054.52 899.129 1037.35 881.989 1015.97 874.543C1003.57 870.207 988.499 870.078 975.36 867.318C935.53 858.978 900.039 838.082 886.646 804.734C880.459 789.31 879.576 772.503 878.161 756.077C876.698 739.26 874.064 722.509 873.602 705.561C873.214 692.047 874.132 675.784 889.844 667.03C909.617 656 939.353 653.602 961.256 651.292Z" stroke="url(#paint10_linear_440_8685)"/>
<path d="M973.509 665.651C1024.76 663.812 1077.42 673.199 1114.92 701.113C1134.81 715.914 1150.6 734.834 1166.06 752.933C1183.59 773.436 1198.69 795.636 1209.23 819.465C1222.35 849.132 1239.48 898.155 1200.15 924.647C1161.13 950.937 1113.53 919.284 1086.2 900.376C1068.7 888.253 1052.06 874.772 1033.43 863.639C1023.32 857.607 1012.39 853.706 1001.15 849.24C970.046 836.899 942.607 815.275 924.886 790.817C907.701 767.099 895.122 735.705 892.131 707.074C890.833 694.722 894.024 684.908 908.044 677.742C927.566 667.796 952.335 666.409 973.509 665.651Z" stroke="url(#paint11_linear_440_8685)"/>
<path d="M990.548 678.769C1035.94 678.248 1080.28 689.875 1113.42 714.335C1150.56 741.749 1177.17 782.101 1195.02 820.764C1204.51 841.32 1227.42 885.289 1196.29 904.317C1165.15 923.344 1124.32 899.461 1101.65 885.506C1074.18 868.567 1047.05 849.705 1021.43 830.528C999.17 813.857 976.194 795.884 957.47 776.551C946.997 765.819 937.645 754.048 929.56 741.42C923.696 732.171 915.474 720.597 915.532 709.428C915.765 681.229 968.846 679.01 990.548 678.769Z" stroke="url(#paint12_linear_440_8685)"/>
<path d="M1008.23 695.78C1094.76 697.752 1150.92 755.855 1180.37 817.65C1187.21 832.015 1208.99 871.65 1186.09 886.034C1163.91 899.975 1129.1 880.713 1112.64 871.732C1061.64 843.904 1019.37 804.6 977.989 767.665C965.067 756.135 938.236 736.177 943.806 716.747C949.888 695.601 990.276 695.336 1008.23 695.78Z" stroke="url(#paint13_linear_440_8685)"/>
<path d="M1029.1 713.884C1093.51 718.181 1140.76 763.997 1163.91 810.936C1169.58 822.441 1185.56 851.269 1170.98 864.471C1157.53 876.675 1130.24 861.675 1119.51 856.184C1095.63 843.969 1074.5 827.784 1054.05 811.69C1035.15 796.81 1015.83 781.825 998.939 765.453C990.046 756.831 971.686 741.056 978.939 727.124C986.78 712.123 1014.8 712.936 1029.1 713.884Z" stroke="url(#paint14_linear_440_8685)"/>
<path d="M1052.36 733.814C1094.9 738.646 1129.35 770.486 1145.76 801.91C1150.17 810.362 1160.68 828.402 1152.02 838.484C1144.05 847.763 1127.25 839.862 1119.53 836.413C1085.35 821.152 1051.8 794.865 1028.88 768.917C1023.11 762.398 1012.08 750.827 1018.31 741.225C1024.7 731.377 1042.59 732.699 1052.36 733.814Z" stroke="url(#paint15_linear_440_8685)"/>
<path d="M1074.89 755.466C1096.24 758.804 1115.86 776.157 1124.66 792.305C1130.8 803.682 1131.46 818.948 1112.02 812.395C1092.57 805.841 1072.72 790.009 1061.98 775.088C1053.8 763.736 1056.56 752.594 1074.89 755.466Z" stroke="url(#paint16_linear_440_8685)"/>
<path d="M786.373 140.937C824.683 131.286 860.654 105.054 901.775 103.999C935.53 103.143 946.365 136.659 965.816 153.684C981.264 167.208 1003.97 171.577 1025.74 175.698C1045.29 179.407 1065.17 182.172 1084.53 186.389C1097.05 189.111 1121.31 193.133 1124.49 204.737C1127.54 215.854 1112.79 230.209 1104.18 239.136C1092.96 250.766 1080.62 261.644 1069.13 273.089C1049.74 292.366 1036.89 313.024 1025.53 335.877C1012.61 361.883 1000.39 388.098 988.893 414.523C980.388 433.994 971.975 453.552 962.066 472.677C955.854 484.672 944.977 510.471 929.187 514.346C921.648 516.19 911.889 512.323 904.915 509.81C893.117 505.555 881.961 500.159 871.008 494.686C850.6 484.502 830.848 473.524 810.887 462.767C785.012 448.791 759.685 435.591 731.469 424.609C702.271 413.271 672.432 402.875 642.863 392.08C622.791 384.773 600.673 377.967 586.129 364.01C567.939 346.515 577.908 326.231 573.105 305.304C568.976 287.307 620.113 276.522 633.713 270.895C647.472 265.203 659.59 256.985 673.446 251.623C690.766 244.923 709.079 240.532 727.027 235.632C748.992 229.64 770.022 224.326 773.818 202.957C775.995 190.793 774.165 178.625 774.322 166.53C774.402 158.688 774.272 143.985 786.373 140.937Z" stroke="url(#paint17_linear_440_8685)"/>
<path d="M795.31 148.149C827.084 138.596 865.673 117.664 901.429 120.277C931.99 122.502 942.36 149.742 961.794 165.119C977.823 177.813 999.629 179.978 1021.28 183.085C1038.66 185.587 1056.13 187.832 1073.2 191.292C1085.77 193.838 1106.8 197.296 1111.74 207.636C1116.17 216.941 1101.79 231.465 1094.51 239.003C1083.87 250.019 1071.89 260.116 1060.24 270.378C1039.78 288.406 1021.76 306.17 1008.89 328.497C996.021 350.824 987.807 374.026 979.174 397.472C972.429 415.818 965.349 434.148 956.777 452.09C950.407 465.454 942.663 484.326 927.757 493.289C915.964 500.383 889.892 484.821 880.975 480.531C862.65 471.697 845.073 461.861 827.583 451.999C806.262 439.976 787.019 426.913 763.672 417.377C721.977 400.287 672.533 389.484 638.255 362.891C617.537 346.867 608.242 325.755 605.383 303.13C604.249 294.168 618.806 288.489 627.325 285.303C641.482 280.005 656.266 276.243 670.58 271.353C683.981 266.765 696.312 260.742 709.194 255.182C722.256 249.56 736.056 245.565 749.333 240.552C757.591 237.442 767.262 233.996 772.963 227.616C778.877 220.995 779.917 212.165 780.48 204.523C781.528 190.167 772.891 154.887 795.31 148.149Z" stroke="url(#paint18_linear_440_8685)"/>
<path d="M811.502 156.31C840.318 146.106 876.105 132.912 906.414 139.337C931.204 144.582 941.363 165.933 959.7 178.542C974.947 189.037 995.346 189.515 1014.76 191.904C1030.7 193.879 1046.69 195.837 1062.2 199.126C1073.95 201.611 1089.81 204.657 1095.85 213.711C1101.02 221.452 1089.19 234.411 1083.29 240.783C1073.23 251.651 1061.39 261.375 1049.71 271.004C1030.59 286.774 1009.79 302.049 995.777 321.348C982.188 340.097 976.258 359.944 969.141 380.418C963.697 396.091 957.894 411.764 950.59 427.052C944.985 438.796 938.466 453.242 926.46 461.522C916.109 468.669 899.891 460.486 890.491 456.714C874.979 450.471 860.309 442.934 845.61 435.556C829.769 427.595 814.669 418.191 798.595 410.666C764.767 394.839 728.967 384.279 700.538 361.621C682.104 346.954 663.527 325.728 660.765 303.859C658.78 288.137 700.449 279.285 713.331 274.669C734.402 267.095 756.027 257.009 774.202 244.839C789.773 234.398 791.432 217.985 791.948 203.132C792.272 193.821 791.399 184.358 793.107 175.032C795.091 164.219 799.451 160.571 811.502 156.31Z" stroke="url(#paint19_linear_440_8685)"/>
<path d="M827.89 163.612C852.438 155.783 882.111 149.173 906.638 156.241C928.136 162.444 937.639 180.275 955.805 190.317C969.962 198.135 989.938 197.774 1006.69 199.796C1027.17 202.271 1064.26 203.75 1075.51 219.609C1085.98 234.355 1048 261.417 1036.83 270.323C1019.19 284.394 999.267 297.395 983.632 313.104C970.166 326.625 964.581 341.781 958.476 357.911C950.713 378.469 942.895 408.714 921.815 423.759C906.092 434.943 874.772 418.16 860.851 413.163C846.309 407.949 829.915 405.333 815.76 399.761C793.415 390.972 772.842 373.009 756.816 357.953C741.222 343.31 723.186 323.777 719.256 303.9C716.674 290.836 740.511 282.609 751.763 276.966C767.776 268.984 781.713 260.105 790.559 246.059C799.558 231.76 801.863 216.887 803.313 201.479C804.038 193.581 803.978 184.77 807.407 177.04C811.124 168.583 818.45 166.622 827.89 163.612Z" stroke="url(#paint20_linear_440_8685)"/>
<path d="M845.368 173.109C866.998 168.073 890.997 166.636 910.506 174.673C926.762 181.361 935.116 195.891 951.586 202.083C964.621 206.988 981.305 207.093 995.554 209.059C1013.01 211.461 1043.02 213.59 1052.23 227.691C1061.22 241.462 1033.63 262.093 1022.83 270.758C1007 283.455 989.71 294.802 973.943 307.556C961.572 317.567 954.51 327.874 948.104 340.889C940.574 356.177 933.098 376.785 917.23 387.764C905.746 395.694 882.687 388.605 870.496 386.929C862.322 385.812 854.077 384.972 845.612 385.451C839.022 385.819 833.14 387.095 826.929 385.096C811.298 380.067 805.198 362.342 797.767 351.085C787.905 336.143 776.989 320.404 771.62 303.599C768.293 293.235 778.862 285.08 785.759 277.097C793.923 267.659 798.606 255.928 803.923 245.373C810.993 231.456 814.104 217.406 817.256 202.882C818.676 196.331 819.808 188.759 824.332 182.882C829.048 176.751 837.565 174.925 845.368 173.109Z" stroke="url(#paint21_linear_440_8685)"/>
<path d="M861.423 183.623C880.06 181.385 898.938 183.741 914.363 191.634C926.209 197.679 934.409 207.523 947.834 211.427C960.352 215.076 973.932 216.462 986.951 218.841C1000.73 221.359 1023.49 224.549 1029.89 236.389C1036.79 249.153 1018.28 264.65 1008.01 273.238C995.036 284.083 980.527 293.431 966.857 303.621C956.912 311.042 948.046 319.808 940.514 329.669C932.809 339.776 926.193 352.56 914.023 359.622C903.217 365.891 887.578 362.687 875.505 364.338C862.605 366.098 849.881 371.423 837.422 367.134C811.731 358.307 807.43 321.824 802.128 301.647C796.869 281.75 806.704 262.402 815.847 243.113C821.887 230.364 826.502 217.492 831.884 204.623C837.358 191.52 845.024 185.598 861.423 183.623Z" stroke="url(#paint22_linear_440_8685)"/>
<path d="M874.801 193.764C902.551 193.663 921.092 209.574 944.208 218.544C963.144 225.908 998.818 226.325 1007.77 244.175C1017.94 264.448 976.374 287.925 960.938 299.478C943.814 312.306 931.792 330.761 913.052 341.736C903.211 347.488 892.65 347.066 881.635 347.871C869.549 348.761 857.304 350.179 846.388 345.904C824.903 337.507 819.092 312.492 814.309 294.619C809.343 276.12 818.07 256.631 827.154 238.795C836.753 219.836 846.356 193.879 874.801 193.764Z" stroke="url(#paint23_linear_440_8685)"/>
<path d="M884.343 202.377C904.717 204.846 923.4 215.786 940.585 224.178C954.905 231.193 981.55 236.059 986.843 250.686C993.079 267.872 969.867 284.709 955.732 295.412C941.842 305.949 927.801 319.702 911.674 327.547C894.876 335.719 868.475 330.877 853.542 323.832C836.91 315.949 827.403 298.884 824.209 283.033C820.86 266.452 828.845 248.634 837.878 233.286C847.54 216.916 860.728 199.482 884.343 202.377Z" stroke="url(#paint24_linear_440_8685)"/>
<path d="M890.181 211.085C907.321 213.995 923.225 222.334 937.493 230.111C948.508 236.123 966.802 244.495 969.982 256.176C973.476 269.032 963.143 283.095 951.088 291.399C939.204 299.577 924.048 308.848 909.886 313.024C879.006 322.11 835.972 296.845 832.827 270.932C829.839 246.371 856.007 205.274 890.181 211.085Z" stroke="url(#paint25_linear_440_8685)"/>
<path d="M893.993 219.514C916.458 223.811 950.695 239.094 956.236 259.476C962.619 282.851 931.835 296.423 907.781 298.905C883.226 301.449 842.296 282.475 841.802 259.7C841.318 237.48 867.358 214.419 893.993 219.514Z" stroke="url(#paint26_linear_440_8685)"/>
<path d="M899.494 228.066C918.323 231.749 943.473 243.197 948.204 260.244C953.84 280.56 926.599 286.633 908.549 286.019C889.835 285.362 854.774 271.206 855.244 252.136C855.714 233.585 881.455 224.531 899.494 228.066Z" stroke="url(#paint27_linear_440_8685)"/>
<path d="M903.385 235.726C916.723 237.937 935.085 247.063 938.459 259.084C942.573 273.781 920.331 276.029 908.989 274.673C895.524 273.065 870.383 262.908 870.814 249.26C871.278 235.819 892.395 233.889 903.385 235.726Z" stroke="url(#paint28_linear_440_8685)"/>
<path d="M376.703 1098.45C344.568 1071.4 315.663 1039.05 286.925 1008.9C244.939 964.83 203.578 919.824 168.58 871.334C149.819 845.345 123.765 812.082 125.753 778.972C126.47 766.856 134.327 754.089 138.622 742.358C144.534 726.181 149.962 709.899 155.38 693.649C166.262 661.049 176.952 628.402 189.089 596.023C194.943 580.429 203.218 564.68 207.603 548.843C210.175 539.596 205.736 530.311 203.375 521.639C197.881 501.518 191.819 481.619 185.924 461.643C178.732 437.209 171.444 412.737 166.064 387.843C163.646 376.61 154.712 349.821 165.001 340.87C170.544 336.057 183.802 341.143 189.939 343.503C201.222 347.842 211.782 353.392 222.224 358.863C246.382 371.516 269.844 385.476 295.875 395.639C309.257 400.859 325.776 407.933 340.232 399.017C354.838 390 366.398 377.657 380.868 368.367C397.526 357.668 415.814 350.526 434.365 342.929C448.079 337.307 459.459 329.115 471.466 321.099C484.696 312.256 498.003 303.191 512.423 295.806C521.94 290.922 539.185 282.601 547.637 289.737C559.672 299.872 557.805 324.693 558.444 339.362C559.349 359.618 559.216 379.978 559.755 400.275C560.139 415.008 560.246 429.859 563.294 444.204C568.206 467.328 575.652 489.941 582.864 512.461C596.284 554.149 610.806 595.243 620.943 637.857C629.828 675.189 597.619 774.012 593.139 796.411C584.195 841.128 576.469 886.691 560.878 930.707C556.662 942.614 551.544 960.609 539.094 969.311C531.424 974.667 526.16 974.3 522.583 983.5C517.728 996.036 518.066 1010.55 517.575 1023.28C516.78 1043.76 516.842 1064.21 516.545 1084.68C516.036 1126.06 514.177 1167.47 512.765 1208.89C512.336 1221.41 515.01 1235.8 511.968 1248.37C510.049 1256.48 505.275 1256.79 498.403 1252.52C486.352 1245.03 477.686 1232.57 469.381 1222.3C457.222 1207.26 445.875 1191.73 434.625 1176.17C423.375 1160.61 412.303 1144.89 401.064 1129.34C393.655 1119 386.734 1106.9 376.703 1098.45Z" stroke="url(#paint29_linear_440_8685)"/>
<path d="M375.623 1070.16C342.987 1041.21 314.402 1007.27 286.615 974.607C251.048 932.797 216.736 889.556 189.65 843.033C173.752 815.72 155.669 783.33 158.721 750.827C159.793 739.184 166.082 729.271 171.115 718.355C176.864 705.908 181.828 693.227 186.676 680.57C196.651 654.527 206.044 628.366 214.855 602.089C219.551 588.164 226.531 572.412 225.907 558.089C225.43 546.708 219.444 535.058 215.957 524.335C209.688 505.024 203.368 485.729 197.297 466.352C190.288 444.008 183.389 421.557 178.231 398.723C175.349 385.991 167.804 364.758 175.69 353.389C182.564 343.476 220.959 364.482 228.135 368.079C250.605 379.277 272.383 391.508 295.902 401.315C309.775 407.12 326.653 414.194 343.183 414.098C357.279 414.011 371.078 404.426 382.583 397.964C397.006 389.878 412.185 382.507 426.114 373.791C438.522 366.018 448.792 355.863 459.552 346.614C471.381 336.394 483.404 326.031 496.882 317.323C505.18 311.982 519.086 303.093 529.221 307.379C540.92 312.333 539.773 336.416 540.57 346.071C542.126 365.581 542.227 385.25 542.799 404.914C543.771 437.484 545.145 468.445 554.015 499.719C565.567 540.477 579.5 580.618 591.587 621.23C596.054 636.229 601.455 651.259 604.137 666.683C605.674 675.538 604.003 682.946 597.871 689.762C589.508 699.069 587.752 716.314 584.669 728.806C579.834 748.23 575.674 767.731 571.428 787.201C562.026 829.956 553.474 873.294 538.157 915.361C533.32 928.675 527.995 943.813 517.515 955.36C511.666 961.783 504.648 962.172 497.918 966.83C489.074 972.991 487.63 986.669 486.267 994.969C483.558 1010.99 483.03 1027.13 482.732 1043.09C482.053 1079.17 484.42 1114.69 488.404 1150.27C489.347 1158.61 493.519 1191.33 473.074 1178.49C450.485 1164.29 435.215 1139.68 419.792 1120.33C405.889 1102.86 392.641 1085.24 375.623 1070.16Z" stroke="url(#paint30_linear_440_8685)"/>
<path d="M368.715 1021.08C339.504 993.52 314.918 961.18 291.241 929.624C262.516 891.368 235.56 851.559 215.649 809.02C203.151 782.287 191.299 752.353 194.323 722.124C196.417 701.495 210.722 682.481 219.028 662.812C227.334 643.144 234.701 622.974 240.038 602.743C243.346 590.185 246.51 576.771 242.77 564.563C233.693 534.88 221.983 505.858 212.603 476.206C206.38 456.599 200.403 436.893 196.018 416.817C193.362 404.7 188.533 388.323 193.747 375.787C199.505 361.94 287.677 407.428 297.329 411.42C321.526 421.379 353.242 432.929 381.947 423.06C409.426 413.613 427.513 396.69 446.269 377.91C456.958 367.247 484.562 334.722 503.012 339.96C513.556 342.956 514.416 360.884 515.724 369.181C518.295 385.554 519.407 402.171 520.873 418.676C523.032 442.789 523.505 467.959 527.544 491.752C530.364 508.298 535.669 524.328 539.592 540.676C545.2 564.078 550.55 587.537 555.865 611.006C560.324 630.72 565.251 650.486 567.613 670.621C569.091 683.138 568.109 693.141 561.192 704.01C555.179 713.474 553.323 726.026 550.656 736.896C546.254 754.853 542.493 772.869 538.603 790.866C530.454 828.544 522.744 866.528 510.204 903.727C504.486 920.698 497.469 948.631 475.909 957.414C468.142 960.618 464.864 962.336 461.809 969.892C457.47 980.597 457.149 992.286 457.048 1003.18C456.792 1028.57 463.555 1053.02 463.359 1078.36C463.254 1088.68 461.042 1102.64 446.415 1094.37C429.318 1084.73 417.117 1067.65 404.756 1054.16C398.601 1047.45 392.644 1040.38 385.613 1034.23C380.237 1029.58 373.913 1025.96 368.715 1021.08Z" stroke="url(#paint31_linear_440_8685)"/>
<path d="M360.7 957.638C336.128 931.611 315.658 901.861 296.589 872.411C275.433 839.687 256.238 805.581 242.954 769.557C233.776 744.691 226.376 717.626 229.922 690.523C232.171 673.381 242.227 659.728 249.568 643.693C260.664 619.492 268.055 594.405 259.151 570.611C249.167 543.927 240.026 516.96 231.728 489.709C226.707 473.228 221.939 456.673 218.696 439.806C216.641 429.138 214.169 415.343 217.825 404.761C222.726 390.597 293.252 422.634 303.3 426.331C328.226 435.484 353.297 440.59 381.416 440.363C404.362 440.176 419.048 425.913 432.82 411.53C441.376 402.592 461.772 375.421 476.473 378.908C484.585 380.817 487.04 392.832 488.937 399.192C492.551 411.258 494.739 423.719 497.327 436.026C501.134 454.211 509.099 472.631 510.626 491.196C514.033 532.331 518.223 573.171 523.593 614.103C526.546 636.663 529.749 659.302 530.544 682.168C530.828 690.386 531.084 698.867 529.306 707.137C528.143 712.461 524.861 715.985 522.611 720.784C511.932 743.627 510.04 770.57 505.413 794.542C499.255 826.4 493.336 858.368 484.643 890.019C480.044 906.682 475.682 929.453 461.607 943.51C457.364 947.756 453.066 947.401 448.734 950.465C443.744 953.994 443.691 961.119 443.193 965.835C442.051 976.555 446.577 1019.1 421.512 1004.96C409.579 998.19 400.556 988.114 390.446 979.694C386.784 976.652 383.13 973.701 378.62 971.51C371.166 967.804 366.328 963.574 360.7 957.638Z" stroke="url(#paint32_linear_440_8685)"/>
<path d="M352.563 889.946C310.225 837.103 274.428 771.866 262.708 706.048C258.818 684.167 257.433 659.951 267.159 637.859C272.916 624.852 280.26 613.764 280.134 599.787C280.031 589.694 275.11 579.983 271.928 570.568C267.31 556.934 262.821 543.254 258.561 529.516C253.303 512.48 248.283 495.319 244.63 477.854C242.025 465.391 237.562 448.36 243.135 435.663C249.771 420.512 303.024 442.399 312.228 445.076C334.519 451.567 355.407 454.859 379.745 452.057C386.84 451.25 394.581 452.369 401.447 450.353C408.458 448.314 413.92 443.194 418.712 438.561C424.998 432.502 438.776 413.367 448.723 415.544C454.22 416.778 456.959 425.51 459.1 429.883C463.127 438.079 466.28 446.614 469.917 454.962C476.104 469.121 488.29 481.724 491.58 496.641C500.404 536.72 494.94 580.803 495.948 621.908C496.53 646.348 497.604 670.823 496.364 695.396C495.97 703.169 495.55 711.176 493.596 718.94C492.226 724.362 488.488 728.528 486.739 733.654C480.011 753.355 478.136 774.609 475.223 794.73C471.483 820.842 467.972 846.991 463.54 873.096C460.744 889.463 459.751 909.884 451.098 925.47C444.776 936.856 440.695 931.074 431.565 928.036C426.909 926.481 423.056 928.008 418.182 928.009C411.259 928.011 405.483 924.715 400.255 921.58C393.029 917.261 386.388 910.797 378.085 907.839C375.166 906.8 372.04 907.614 369.511 906.811C362.189 904.465 356.575 894.907 352.563 889.946Z" stroke="url(#paint33_linear_440_8685)"/>
<path d="M347.546 824.246C318.332 780.117 295.464 728.741 287.986 676.533C285.403 658.398 284.928 639.584 289.31 621.038C291.298 612.612 294.16 605.954 292.422 597.639C288.385 578.369 281.987 559.588 276.994 540.539C273.424 526.903 270.031 513.158 268.125 499.17C266.849 489.815 264.983 477.194 270.047 468.072C277.423 454.822 315.988 466.41 326.298 468.18C343.397 471.11 362.224 473.585 379.569 466.68C384.866 464.563 389.386 461.983 394.944 460.47C399.717 459.148 404.277 458.587 408.547 456.089C413.844 452.999 420.857 443.206 426.75 444.599C430.801 445.536 432.205 450.85 434.199 454.133C437.473 459.517 441.259 464.573 445.504 469.23C450.039 474.2 456.103 477.904 460.134 483.219C466.671 491.828 469.626 502.508 472.014 512.635C481.541 553.019 481.544 596.22 480.731 637.978C480.314 659.733 479.575 681.677 476.275 703.487C475.274 710.114 474.461 717.547 471.219 723.938C469.205 727.924 466.242 731.052 465.016 735.28C454.666 771.757 456.831 810.571 451.952 847.836C450.686 857.543 445.306 910.913 423.09 888.961C409.587 875.626 401.207 860.131 384.431 849.023C379.339 845.641 375.279 843.536 368.669 843.315C364.274 843.177 367.01 845.375 361.801 842.631C355.53 839.356 350.941 829.359 347.546 824.246Z" stroke="url(#paint34_linear_440_8685)"/>
<path d="M346.068 771.492C318.099 717.904 303.122 658.492 302.345 598.049C302.128 582.786 297.766 567.888 295.105 553.024C292.502 538.587 284.84 513.639 295.769 500.101C303.671 490.248 326.227 493.527 337.753 493.763C352.425 494.065 367.443 493.805 379.469 484.717C386.509 479.402 392.87 472.887 399.775 467.337C403.073 464.678 407.934 459.666 411.791 460.358C418.194 461.489 423.44 472.673 427.543 477.722C440.642 493.884 447.467 512.674 452.048 532.191C460.503 568.241 463.093 605.884 463.348 643.166C463.461 660.31 463.376 677.748 460.581 694.964C458.997 704.716 453.439 712.953 451.226 722.426C444.121 752.944 443.827 783.984 437.986 814.693C436.292 823.58 431.442 856.427 413.715 844.68C396.548 833.299 393.1 811.572 376.606 799.419C374.732 798.076 372.46 796.338 369.831 795.904C368.265 795.651 365.808 797.338 364.883 797.078C354.957 794.517 349.609 778.244 346.068 771.492Z" stroke="url(#paint35_linear_440_8685)"/>
<path d="M346.907 732.55C335.136 704.68 326.882 675.295 319.554 645.849C315.543 629.753 310.075 612.316 311.312 595.365C312.175 585.089 312.435 574.772 312.091 564.467C311.65 553.207 309.021 535.529 318.756 526.295C326.033 519.391 344.188 518.615 354.497 516.353C365.798 513.868 373.701 509.993 380.204 501.566C384.328 496.259 398.26 473.104 404.077 474.008C409.626 474.868 413.52 487.768 416.19 493.149C424.607 510.04 430.373 527.815 434.47 546.058C440.747 574.469 444.145 603.44 444.613 632.533C444.834 644.594 445.06 657.06 442.66 669.203C441.043 677.379 436.521 684.955 434.775 693.111C429.762 716.468 428.25 740.27 423.074 763.75C421.404 771.289 417.924 795.371 403.226 793.291C390.963 791.56 383.992 777.402 374.722 771.836C358.91 762.384 353.367 747.877 346.907 732.55Z" stroke="url(#paint36_linear_440_8685)"/>
<path d="M349.003 712.734C340.345 690.292 333.218 667.29 327.673 643.884C324.036 628.813 320.001 612.961 320.625 597.179C320.927 589.254 324.247 581.64 326.042 573.781C327.882 565.691 329.478 554.745 336.899 549.668C343.881 544.899 355.344 543.359 363.977 538.553C371.648 534.302 375.575 528.287 379.88 521.784C382.65 517.636 393.973 497.042 397.832 498.196C401.969 499.429 404.083 509.683 405.851 514.853C410.721 529.099 414.653 543.649 417.623 558.409C421.596 578.566 424.324 599.18 424.266 619.925C424.24 634.645 418.754 647.024 416.006 661.412C412.411 680.031 410.554 698.882 406.206 717.512C404.041 726.792 401.635 740.344 391.969 747.15C388.268 749.756 378.229 753.819 373.706 752.981C368.261 751.959 364.246 744.325 362.064 740.786C356.626 731.896 352.7 722.197 349.003 712.734Z" stroke="url(#paint37_linear_440_8685)"/>
</g>
<defs>
<linearGradient id="paint0_linear_440_8685" x1="467" y1="941.204" x2="1436.2" y2="659.297" gradientUnits="userSpaceOnUse">
<stop stop-color="#4DA5DD"/>
<stop offset="1" stop-color="#47A6E0" stop-opacity="0"/>
</linearGradient>
<linearGradient id="paint1_linear_440_8685" x1="3.94369e+06" y1="-248306" x2="4.885e+06" y2="-522098" gradientUnits="userSpaceOnUse">
<stop stop-color="#4DA5DD"/>
<stop offset="1" stop-color="#47A6E0" stop-opacity="0"/>
</linearGradient>
<linearGradient id="paint2_linear_440_8685" x1="3.657e+06" y1="-235749" x2="4.44342e+06" y2="-464490" gradientUnits="userSpaceOnUse">
<stop stop-color="#4DA5DD"/>
<stop offset="1" stop-color="#47A6E0" stop-opacity="0"/>
</linearGradient>
<linearGradient id="paint3_linear_440_8685" x1="3.32827e+06" y1="-223402" x2="3.96461e+06" y2="-408489" gradientUnits="userSpaceOnUse">
<stop stop-color="#4DA5DD"/>
<stop offset="1" stop-color="#47A6E0" stop-opacity="0"/>
</linearGradient>
<linearGradient id="paint4_linear_440_8685" x1="3.01523e+06" y1="-209091" x2="3.52241e+06" y2="-356612" gradientUnits="userSpaceOnUse">
<stop stop-color="#4DA5DD"/>
<stop offset="1" stop-color="#47A6E0" stop-opacity="0"/>
</linearGradient>
<linearGradient id="paint5_linear_440_8685" x1="2.74032e+06" y1="-196922" x2="3.14916e+06" y2="-315839" gradientUnits="userSpaceOnUse">
<stop stop-color="#4DA5DD"/>
<stop offset="1" stop-color="#47A6E0" stop-opacity="0"/>
</linearGradient>
<linearGradient id="paint6_linear_440_8685" x1="2.50041e+06" y1="-183195" x2="2.83454e+06" y2="-280385" gradientUnits="userSpaceOnUse">
<stop stop-color="#4DA5DD"/>
<stop offset="1" stop-color="#47A6E0" stop-opacity="0"/>
</linearGradient>
<linearGradient id="paint7_linear_440_8685" x1="2.30291e+06" y1="-178125" x2="2.58326e+06" y2="-259669" gradientUnits="userSpaceOnUse">
<stop stop-color="#4DA5DD"/>
<stop offset="1" stop-color="#47A6E0" stop-opacity="0"/>
</linearGradient>
<linearGradient id="paint8_linear_440_8685" x1="2.05724e+06" y1="-151836" x2="2.27626e+06" y2="-215539" gradientUnits="userSpaceOnUse">
<stop stop-color="#4DA5DD"/>
<stop offset="1" stop-color="#47A6E0" stop-opacity="0"/>
</linearGradient>
<linearGradient id="paint9_linear_440_8685" x1="1.78616e+06" y1="-111347" x2="1.94643e+06" y2="-157965" gradientUnits="userSpaceOnUse">
<stop stop-color="#4DA5DD"/>
<stop offset="1" stop-color="#47A6E0" stop-opacity="0"/>
</linearGradient>
<linearGradient id="paint10_linear_440_8685" x1="1.51662e+06" y1="-67728.1" x2="1.62857e+06" y2="-100289" gradientUnits="userSpaceOnUse">
<stop stop-color="#4DA5DD"/>
<stop offset="1" stop-color="#47A6E0" stop-opacity="0"/>
</linearGradient>
<linearGradient id="paint11_linear_440_8685" x1="1.31097e+06" y1="-44245" x2="1.39289e+06" y2="-68071.5" gradientUnits="userSpaceOnUse">
<stop stop-color="#4DA5DD"/>
<stop offset="1" stop-color="#47A6E0" stop-opacity="0"/>
</linearGradient>
<linearGradient id="paint12_linear_440_8685" x1="1.14954e+06" y1="-38699.1" x2="1.21185e+06" y2="-56820.2" gradientUnits="userSpaceOnUse">
<stop stop-color="#4DA5DD"/>
<stop offset="1" stop-color="#47A6E0" stop-opacity="0"/>
</linearGradient>
<linearGradient id="paint13_linear_440_8685" x1="983296" y1="-33963.3" x2="1.02842e+06" y2="-47088.6" gradientUnits="userSpaceOnUse">
<stop stop-color="#4DA5DD"/>
<stop offset="1" stop-color="#47A6E0" stop-opacity="0"/>
</linearGradient>
<linearGradient id="paint14_linear_440_8685" x1="778316" y1="-24498.9" x2="806159" y2="-32597.7" gradientUnits="userSpaceOnUse">
<stop stop-color="#4DA5DD"/>
<stop offset="1" stop-color="#47A6E0" stop-opacity="0"/>
</linearGradient>
<linearGradient id="paint15_linear_440_8685" x1="545104" y1="-16212.3" x2="558555" y2="-20124.6" gradientUnits="userSpaceOnUse">
<stop stop-color="#4DA5DD"/>
<stop offset="1" stop-color="#47A6E0" stop-opacity="0"/>
</linearGradient>
<linearGradient id="paint16_linear_440_8685" x1="283651" y1="-6853.54" x2="287239" y2="-7897.32" gradientUnits="userSpaceOnUse">
<stop stop-color="#4DA5DD"/>
<stop offset="1" stop-color="#47A6E0" stop-opacity="0"/>
</linearGradient>
<linearGradient id="paint17_linear_440_8685" x1="2.41715e+06" y1="-519893" x2="2.75732e+06" y2="-618838" gradientUnits="userSpaceOnUse">
<stop stop-color="#4DA5DD"/>
<stop offset="1" stop-color="#47A6E0" stop-opacity="0"/>
</linearGradient>
<linearGradient id="paint18_linear_440_8685" x1="2.21655e+06" y1="-478020" x2="2.49711e+06" y2="-559624" gradientUnits="userSpaceOnUse">
<stop stop-color="#4DA5DD"/>
<stop offset="1" stop-color="#47A6E0" stop-opacity="0"/>
</linearGradient>
<linearGradient id="paint19_linear_440_8685" x1="1.93828e+06" y1="-420176" x2="2.14731e+06" y2="-480976" gradientUnits="userSpaceOnUse">
<stop stop-color="#4DA5DD"/>
<stop offset="1" stop-color="#47A6E0" stop-opacity="0"/>
</linearGradient>
<linearGradient id="paint20_linear_440_8685" x1="1.62154e+06" y1="-353872" x2="1.76397e+06" y2="-395300" gradientUnits="userSpaceOnUse">
<stop stop-color="#4DA5DD"/>
<stop offset="1" stop-color="#47A6E0" stop-opacity="0"/>
</linearGradient>
<linearGradient id="paint21_linear_440_8685" x1="1.30443e+06" y1="-285606" x2="1.39445e+06" y2="-311788" gradientUnits="userSpaceOnUse">
<stop stop-color="#4DA5DD"/>
<stop offset="1" stop-color="#47A6E0" stop-opacity="0"/>
</linearGradient>
<linearGradient id="paint22_linear_440_8685" x1="1.07494e+06" y1="-237635" x2="1.13533e+06" y2="-255203" gradientUnits="userSpaceOnUse">
<stop stop-color="#4DA5DD"/>
<stop offset="1" stop-color="#47A6E0" stop-opacity="0"/>
</linearGradient>
<linearGradient id="paint23_linear_440_8685" x1="906367" y1="-200992" x2="949036" y2="-213403" gradientUnits="userSpaceOnUse">
<stop stop-color="#4DA5DD"/>
<stop offset="1" stop-color="#47A6E0" stop-opacity="0"/>
</linearGradient>
<linearGradient id="paint24_linear_440_8685" x1="751367" y1="-165856" x2="780521" y2="-174336" gradientUnits="userSpaceOnUse">
<stop stop-color="#4DA5DD"/>
<stop offset="1" stop-color="#47A6E0" stop-opacity="0"/>
</linearGradient>
<linearGradient id="paint25_linear_440_8685" x1="619966" y1="-137603" x2="639728" y2="-143352" gradientUnits="userSpaceOnUse">
<stop stop-color="#4DA5DD"/>
<stop offset="1" stop-color="#47A6E0" stop-opacity="0"/>
</linearGradient>
<linearGradient id="paint26_linear_440_8685" x1="504953" y1="-112716" x2="518014" y2="-116515" gradientUnits="userSpaceOnUse">
<stop stop-color="#4DA5DD"/>
<stop offset="1" stop-color="#47A6E0" stop-opacity="0"/>
</linearGradient>
<linearGradient id="paint27_linear_440_8685" x1="401903" y1="-90266.4" x2="410136" y2="-92661" gradientUnits="userSpaceOnUse">
<stop stop-color="#4DA5DD"/>
<stop offset="1" stop-color="#47A6E0" stop-opacity="0"/>
</linearGradient>
<linearGradient id="paint28_linear_440_8685" x1="288782" y1="-64897" x2="293010" y2="-66126.7" gradientUnits="userSpaceOnUse">
<stop stop-color="#4DA5DD"/>
<stop offset="1" stop-color="#47A6E0" stop-opacity="0"/>
</linearGradient>
<linearGradient id="paint29_linear_440_8685" x1="2.183e+06" y1="150326" x2="2.50298e+06" y2="57256.6" gradientUnits="userSpaceOnUse">
<stop stop-color="#4DA5DD"/>
<stop offset="1" stop-color="#47A6E0" stop-opacity="0"/>
</linearGradient>
<linearGradient id="paint30_linear_440_8685" x1="1.96279e+06" y1="108182" x2="2.21801e+06" y2="33947" gradientUnits="userSpaceOnUse">
<stop stop-color="#4DA5DD"/>
<stop offset="1" stop-color="#47A6E0" stop-opacity="0"/>
</linearGradient>
<linearGradient id="paint31_linear_440_8685" x1="1.68227e+06" y1="73779.2" x2="1.86669e+06" y2="20139.8" gradientUnits="userSpaceOnUse">
<stop stop-color="#4DA5DD"/>
<stop offset="1" stop-color="#47A6E0" stop-opacity="0"/>
</linearGradient>
<linearGradient id="paint32_linear_440_8685" x1="1.38575e+06" y1="46157.5" x2="1.50882e+06" y2="10360.5" gradientUnits="userSpaceOnUse">
<stop stop-color="#4DA5DD"/>
<stop offset="1" stop-color="#47A6E0" stop-opacity="0"/>
</linearGradient>
<linearGradient id="paint33_linear_440_8685" x1="1.14923e+06" y1="31198.2" x2="1.23252e+06" y2="6974.07" gradientUnits="userSpaceOnUse">
<stop stop-color="#4DA5DD"/>
<stop offset="1" stop-color="#47A6E0" stop-opacity="0"/>
</linearGradient>
<linearGradient id="paint34_linear_440_8685" x1="938223" y1="39397.5" x2="992327" y2="23660.6" gradientUnits="userSpaceOnUse">
<stop stop-color="#4DA5DD"/>
<stop offset="1" stop-color="#47A6E0" stop-opacity="0"/>
</linearGradient>
<linearGradient id="paint35_linear_440_8685" x1="740671" y1="37318.9" x2="773801" y2="27682.5" gradientUnits="userSpaceOnUse">
<stop stop-color="#4DA5DD"/>
<stop offset="1" stop-color="#47A6E0" stop-opacity="0"/>
</linearGradient>
<linearGradient id="paint36_linear_440_8685" x1="588266" y1="28574.6" x2="609023" y2="22537.1" gradientUnits="userSpaceOnUse">
<stop stop-color="#4DA5DD"/>
<stop offset="1" stop-color="#47A6E0" stop-opacity="0"/>
</linearGradient>
<linearGradient id="paint37_linear_440_8685" x1="471470" y1="14833.3" x2="484893" y2="10928.9" gradientUnits="userSpaceOnUse">
<stop stop-color="#4DA5DD"/>
<stop offset="1" stop-color="#47A6E0" stop-opacity="0"/>
</linearGradient>
<clipPath id="clip0_440_8685">
<rect width="1296" height="1171" fill="white" transform="translate(0 361.959) rotate(-16.2178)"/>
</clipPath>
</defs>
</svg>
