<svg width="1440" height="1487" viewBox="0 0 1440 1487" fill="none" xmlns="http://www.w3.org/2000/svg">
<g clip-path="url(#clip0_75_1683)">
<path d="M918.481 533.353C935.353 529.267 948.168 499.024 955.387 485.687C969.572 459.341 982.075 432.474 994.911 405.747C1007.75 379.019 1020.52 352.255 1035.37 326.148C1045.01 309.179 1055.72 289.426 1071.97 275.626C1106.59 246.216 1115.77 310.791 1120.52 326.955C1132.63 368.07 1142.98 416.07 1172.78 450.219C1190.56 470.608 1213.3 475.014 1242.04 462.887C1251.39 458.958 1261.46 451.516 1271.91 453.311C1283.06 455.214 1291.25 463.738 1297.15 471.079C1318.58 497.756 1328.46 531.947 1337.81 563.343C1347.96 597.22 1355.61 631.964 1363.89 665.996C1367.39 680.427 1377.32 694.008 1385.74 706.546C1396.78 722.976 1408.6 738.991 1420.19 755.138C1445.63 790.657 1472.23 827.181 1486.22 867.834C1494.98 893.304 1498.29 922.625 1480.84 948.172C1472.08 961.005 1456.73 970.295 1443.35 979.672C1427.21 991.035 1410.82 1002.15 1395.07 1013.91C1344.33 1051.76 1297.36 1099.75 1308.03 1156.98C1309.65 1165.63 1313.01 1173.71 1315.29 1182.16C1316.75 1187.55 1316.29 1192.75 1309.84 1196.42C1293.63 1205.63 1262.45 1196.21 1247.11 1192.95C1213.54 1185.83 1180.88 1176.56 1147.71 1168.48C1125.78 1163.13 1094.94 1152.19 1071.13 1157.66C1049.88 1162.54 1040.1 1189.24 1032.66 1204.28C1025.7 1218.37 1017.11 1242.94 997.548 1248.95C988.073 1251.86 978.855 1248.56 971.366 1244.6C958.268 1237.66 948.021 1228.51 933.624 1222.88C910.02 1213.7 879.322 1208.56 852.456 1216.96C833.843 1222.79 823.575 1234.58 814.373 1248.67C810.51 1254.58 807.903 1259.25 799.874 1261.43C787.119 1264.89 772.55 1264 759.843 1263.44C714.325 1261.43 669.01 1253.98 625.968 1243.95C604.447 1238.93 582.812 1233.14 563.387 1224.32C550.639 1218.58 535.143 1210.38 532.137 1197.68C528.641 1182.96 531.388 1165.87 532.862 1150.42C535.569 1121.57 539.763 1092.7 544.254 1063.87C554.643 997.213 567.184 930.642 581.877 864.164C592.264 817.327 602.459 769.601 620.145 723.663C623.713 714.536 628.188 705.791 633.503 697.558C639.145 688.607 640.306 678.893 640.602 669.26C642.458 609.427 616.126 550.625 595.37 495.924C590.112 482.033 584.838 468.156 580.114 454.091C576.06 442.002 569.337 427.952 571.302 414.83C575.157 388.921 615.006 401.287 631.319 406.647C688.754 425.503 740.603 455.126 792.641 481.634C817.423 494.256 842.168 506.975 867.876 518.298C881.244 524.316 903.699 536.926 918.481 533.353Z" stroke="url(#paint0_linear_75_1683)"/>
<path d="M923.851 543.274C939.473 529.599 948.736 509.907 957.897 493.21C971.084 469.185 983.128 444.765 995.732 420.551C1007.66 397.639 1019.75 374.659 1034.24 352.627C1043.07 339.198 1053.47 322.48 1069.11 313.416C1102.99 293.714 1111.55 354.314 1115.98 368.718C1127 404.543 1137.35 445.668 1164.57 474.758C1181.57 492.922 1203.52 496.82 1230.12 485.761C1239.3 481.938 1246.8 477.206 1257.14 478.475C1269.13 479.948 1278.22 487.717 1285.11 495.186C1306.7 518.575 1317.52 549.717 1327.16 578.332C1337.12 607.909 1346.56 638.94 1351.54 668.672C1353.52 680.571 1361.3 692.944 1367.56 703.674C1377.21 720.206 1387.66 736.357 1397.68 752.705C1418.06 785.929 1438.24 820.229 1448.44 857.376C1455.82 884.213 1457.46 913.632 1443.22 940.816C1428.77 968.36 1400.38 985.806 1374.12 1005.43C1328.7 1039.32 1274.18 1083.47 1275.51 1136.58C1275.71 1144.63 1278.34 1151.81 1279.76 1159.54C1280.5 1163.53 1280.93 1168.17 1276.66 1171.29C1265.59 1179.4 1239.72 1170.54 1229.16 1168C1199.97 1160.99 1171.67 1152.02 1142.83 1144.26C1119.94 1138.09 1094.09 1129.5 1069.07 1130.97C1038.67 1132.74 1025.93 1171.4 1008.25 1188.14C977.516 1217.16 947.946 1183.01 926.401 1167.88C901.661 1150.47 861.763 1140.72 836.29 1167.65C826.553 1177.95 821.887 1188.9 807.643 1195.81C785.31 1206.71 757.499 1209.11 733.209 1210.35C696.688 1212.22 659.651 1210.24 624.73 1203.87C599.721 1199.3 560.302 1191.24 557.171 1166.45C555.072 1149.75 557.631 1131.66 559.596 1114.45C562.547 1088.68 566.761 1062.93 571.387 1037.2C581.996 977.843 595.153 918.51 611.135 859.601C622.048 819.41 677.618 701.308 678.669 693.165C681.792 668.894 674.285 643.929 667.517 621.279C658.526 591.146 646.808 561.834 635.415 532.408C630.008 518.428 624.158 504.52 619.721 490.173C616.571 479.994 612.756 466.552 617.936 455.753C628.048 434.662 665.487 446.568 681.283 451.417C729.706 466.275 774.012 489.093 818.669 509.74C840.594 519.878 862.536 530.239 885.647 538.673C894.857 542.246 914.204 551.737 923.851 543.274Z" stroke="url(#paint1_linear_75_1683)"/>
<path d="M936.121 554.153C965.739 519.881 983.868 477.998 1006.43 440.216C1017.75 421.247 1029.46 402.08 1044.16 384.547C1051.81 375.43 1061.49 364.011 1074.11 359.603C1107.89 347.805 1115.91 402.356 1121.03 418.035C1130.94 448.344 1141.18 482.819 1165.52 506.664C1180.39 521.225 1200.13 525.456 1222.67 516.709C1232.68 512.854 1240.93 508.565 1251.94 509.753C1262.95 510.942 1272.18 516.926 1279.47 523.391C1300.41 541.983 1312.01 568.507 1321.71 592.739C1333.04 621.101 1341.8 650.42 1347.9 680.345C1353.25 706.524 1368.76 730.155 1380.96 754.056C1397.12 785.72 1412.39 818.24 1419.49 852.889C1425.09 880.251 1424.87 909.228 1412.51 936.697C1399.91 964.622 1376.02 985.289 1349.63 1005.03C1309.76 1034.95 1255.89 1073.22 1249.09 1119.65C1248.1 1126.4 1249.19 1132.22 1250.28 1138.68C1250.8 1141.82 1251.69 1145.83 1248.13 1148.29C1239.53 1154.24 1217.92 1144.97 1210.6 1142.69C1187.29 1135.41 1164.64 1126.89 1141.52 1119.23C1119.94 1112.09 1097.32 1104.1 1073.56 1102.17C1035.7 1099.02 1023.9 1140.65 990.187 1147.58C969.257 1151.88 950.482 1139.12 937.096 1128.66C920.645 1115.78 906.866 1094.88 881.839 1092.42C863.202 1090.6 855.422 1102.27 844.018 1112.55C824.75 1129.96 794.915 1137.93 768.976 1142.76C733.916 1149.3 697.172 1151.01 662.605 1147.26C646.951 1145.56 630.435 1142.85 617.023 1136.26C604.45 1130.09 599.804 1122.53 599.194 1110.43C597.356 1073.39 607.23 1033.2 615.555 995.278C625.983 947.196 639.051 899.724 654.699 853.077C665.545 821.036 677.264 788.127 695.591 757.904C700.368 750.037 705.654 741.871 712.857 735.233C718.258 730.225 723.069 727.542 725.208 720.706C731.577 700.581 722.99 676.742 717.398 658.132C708.475 628.365 696.679 599.435 685.356 570.443C678.736 553.529 663.153 522.395 678.396 504.005C691.572 488.123 722.401 496.172 738.276 500.252C778.472 510.563 815.588 527.303 853.217 542.072C870.457 548.833 887.914 555.984 906.4 560.598C911.105 561.769 917.494 563.924 922.727 563.309C928.749 562.549 932.462 558.362 936.121 554.153Z" stroke="url(#paint2_linear_75_1683)"/>
<path d="M928.321 558.348C954.271 527.022 973.413 492.162 996.881 459.576C1007.41 444.963 1018.58 430.083 1032.67 417.502C1040.26 410.733 1050.02 403.144 1061.18 401.854C1093.11 398.232 1100.75 442.802 1106.8 460.126C1115.74 485.856 1125.64 515.536 1147.92 534.883C1162.51 547.559 1180.07 549.44 1200.27 541.62C1221.93 533.232 1239.82 536.207 1256.02 548.822C1276.32 564.637 1288.57 587.78 1298.49 609.389C1310.38 635.307 1319.39 662.454 1325.35 690.341C1331.12 717.417 1342.84 742.198 1352.78 768.098C1365.96 802.434 1377.03 838.478 1375.62 875.857C1374.41 908.4 1362.28 940.418 1338.35 967.908C1313.36 996.659 1277.96 1016.38 1248.8 1041.84C1230.62 1057.71 1206.75 1079.5 1203.54 1101.86C1202.46 1109.31 1209.06 1120.87 1194.49 1118.58C1186.17 1117.23 1178.15 1113.04 1170.85 1109.91C1159.06 1104.84 1147.5 1099.49 1135.83 1094.29C1110.94 1083.19 1085.33 1071.05 1057.53 1064.91C1022.51 1057.15 1003.73 1085.52 971.251 1090.34C953.766 1092.93 937.77 1086.42 924.584 1078.66C916.24 1073.63 908.312 1067.94 900.874 1061.64C893.149 1055.25 886.488 1047.09 877.237 1042.08C864.126 1034.96 852.338 1042.21 838.804 1047.34C814.953 1056.4 790.247 1063.01 765.063 1067.09C734.196 1072.09 701.751 1074.34 671.579 1069.98C659.834 1068.27 647.174 1065.6 638.075 1059.32C628.976 1053.05 627.508 1044.65 627.5 1035.02C627.448 1006.32 635.902 975.667 643.892 946.534C653.907 909.621 666.464 873.444 681.475 838.263C692.039 813.726 703.829 788.824 720.734 766.408C725.662 759.672 731.262 753.455 737.45 747.854C741.839 743.98 747.976 741.015 750.822 736.221C759.7 721.278 750.393 697.724 746.327 683.646C738.198 655.538 725.059 629.104 716.723 601.093C712.182 585.804 704.243 562.05 717.642 546.84C730.229 532.536 756.371 536.519 772.487 539.48C804.16 545.235 833.732 556.039 863.985 564.804C876.436 568.416 889.53 572.483 903.03 573.561C915.057 574.482 921.654 566.378 928.321 558.348Z" stroke="url(#paint3_linear_75_1683)"/>
<path d="M929.2 564.325C952.508 538.754 971.764 510.036 995.494 484.229C1009.39 469.121 1032.64 443.264 1058.03 446.351C1085.93 449.727 1094.49 482.602 1101.1 501.21C1108.96 523.36 1118.68 549.252 1139.31 564.902C1145.84 569.851 1153.78 573.499 1163.14 573.619C1173.15 573.748 1180.8 569.182 1190.17 566.597C1209.84 561.17 1228.09 567.069 1242.06 577.314C1261.84 591.777 1274.55 612.728 1284.73 632.948C1296.21 655.723 1304.94 679.786 1310.72 704.626C1316.25 728.278 1322.47 751.512 1328.81 774.995C1337.15 805.703 1343.03 837.461 1340.15 869.904C1337.29 901.821 1325.15 933.107 1302.92 960.708C1281.22 987.632 1252.01 1009.27 1221.8 1029.31C1204.65 1040.68 1179.34 1059.03 1173.75 1077.77C1171.27 1086.1 1173.27 1093.22 1160.43 1088.04C1144.26 1081.52 1130.01 1070.94 1115.47 1062.4C1094.5 1050.07 1073.09 1037.42 1049.5 1028.49C1034.45 1022.79 1020.93 1021.87 1004.28 1026.46C991.606 1029.97 979.45 1035.1 966.36 1037.09C935.6 1041.75 910.327 1027.21 887.002 1014.6C871.993 1006.48 860.151 998.63 841.189 997.12C818.776 995.339 795.463 997.899 772.789 998.535C747.889 999.243 721.847 999.405 698.382 993.586C677.493 988.405 666.372 978.713 667.228 960.031C668.553 930.91 681.404 899.457 693.457 871.012C705.705 842.066 720.319 813.008 740.353 786.671C751.177 772.446 765.173 761.169 777.264 747.955C792.47 731.322 778.969 705.106 773.504 688.915C764.421 662.038 724.785 580.098 788.442 573.387C815.02 570.586 841.928 578.047 866.955 582.222C877.33 583.926 890.072 587.009 901.072 585.34C913.082 583.471 922.18 572.014 929.2 564.325Z" stroke="url(#paint4_linear_75_1683)"/>
<path d="M929.212 574.888C950.973 554.394 970.664 531.424 994.939 512.521C1010.65 500.264 1032.33 486.745 1053.44 492.672C1077.29 499.401 1088.33 524.073 1095.55 542.493C1102.95 561.428 1110.86 584.257 1130.64 596.502C1136.93 600.384 1144.79 602.951 1153.19 601.784C1161.24 600.66 1168.61 596.666 1176.79 595.456C1195.17 592.754 1212.13 598.17 1225.64 607.142C1265.58 633.683 1284.73 682.76 1295.35 723.723C1300.66 744.219 1303.53 765.935 1306.91 787.039C1311.29 814.414 1313.37 842.395 1309.03 870.533C1299.81 930.363 1259.3 978.625 1204.14 1018.73C1186.77 1031.34 1167.39 1042.46 1154.89 1058.74C1148.43 1067.13 1142.36 1067.11 1133.47 1062.14C1119.6 1054.47 1107.88 1043.89 1095.62 1034.63C1078.19 1021.46 1060.49 1008.02 1040.83 997.364C1027.28 990.037 1014.83 985.51 997.568 987.339C985.254 988.645 973.164 991.897 960.928 993.832C937.675 997.508 913.587 996.884 892.112 990.732C875.087 985.844 859.043 979.009 843.559 971.69C823.506 962.092 802.516 954.59 780.922 949.304C751.068 942.009 697.433 934.531 702.785 899.319C708.694 860.498 737.212 818.643 767.098 787.532C777.125 777.061 790.173 767.364 796.465 754.995C805.854 736.485 801.68 720.966 797.298 702.655C790.693 675.237 769.234 617.275 819.239 604.675C839.053 599.696 859.524 602.269 879.442 601.093C901.763 599.927 914.397 588.905 929.212 574.888Z" stroke="url(#paint5_linear_75_1683)"/>
<path d="M929.53 586.212C958.984 564.075 1005.32 519.115 1047.66 534.855C1070.04 543.163 1082.72 564.262 1091.6 582.379C1098.76 596.963 1104.49 615.231 1122.08 623.343C1135.02 629.307 1149.95 621.743 1164.4 621.77C1182.29 621.818 1198.35 627.865 1211.48 636.861C1248.19 662.065 1267.7 704.493 1278.78 742.613C1290.3 782.21 1291.59 828.598 1282.85 870.471C1271.94 922.746 1238.51 967.901 1191.42 1005.12C1182.73 1011.99 1173.69 1018.5 1164.84 1025.22C1158.89 1029.73 1153.51 1035.61 1147.08 1039.58C1136.35 1046.19 1125.76 1043.89 1116.45 1038.46C1103.05 1030.61 1092.22 1019.61 1081.2 1009.64C1066.11 996.016 1051.13 981.977 1034.36 969.951C1023.1 961.897 1011.02 953.473 994.786 953.483C983.727 953.489 972.5 955.612 961.676 958.279C938.455 964.013 919.403 967.487 895.979 963.657C857.519 957.336 820.713 942.31 788.886 924.758C763.899 910.977 724.978 889.039 732.242 858.578C738.738 831.259 764.769 809.985 784.744 788.254C794.459 777.685 802.943 766.388 808.708 754.125C815.985 738.647 817.432 725.374 815.46 709.564C812.147 682.944 803.594 643.665 839.659 626.621C852.942 620.331 867.881 618.564 881.711 613.634C899.997 607.135 914.68 597.378 929.53 586.212Z" stroke="url(#paint6_linear_75_1683)"/>
<path d="M931.84 601.396C965.359 582.647 1007.47 558.471 1045.28 575.51C1063.6 583.762 1076.24 598.489 1086.57 613.19C1093.97 623.729 1099.73 641.875 1115.67 645.624C1127.4 648.37 1142.03 645.653 1154.39 647.723C1170.6 650.45 1185.95 656.91 1199.22 666.592C1232.34 690.578 1251.7 727.457 1263.09 762.599C1287.83 838.926 1257.05 929.91 1185.33 990.961C1163.96 1009.17 1141.87 1031.36 1112.24 1017.21C1079.91 1001.75 1059.36 971.766 1033.87 950.207C1024.14 941.96 1012.27 931.334 997.63 928.935C988.82 927.484 978.719 929.648 969.876 931.587C947.328 936.521 926.774 939.799 904.073 937.384C868.986 933.661 834.795 922.595 805.415 907.74C779.807 894.811 748.642 875.149 757.787 845.312C764.852 822.482 786.903 803.793 801.693 783.815C818.163 761.593 826.941 736.858 828.126 711.706C829.259 687.249 827.722 661.086 852.799 642.375C861.406 635.953 872.787 628.676 883.031 624.601C899.81 617.985 916.117 610.232 931.84 601.396V601.396Z" stroke="url(#paint7_linear_75_1683)"/>
<path d="M935.553 618.059C970.729 604.712 1008.45 595.184 1042.28 610.303C1058.06 617.357 1070.61 628.041 1082.31 639.076C1090.93 647.193 1098.62 655.861 1110.69 660.586C1121.87 664.964 1134.22 667.369 1145.59 671.456C1160.22 676.596 1173.93 684.056 1186.19 693.547C1215.79 716.761 1234.73 749.061 1246.35 781.508C1251.99 797.216 1257.09 814.487 1256 831.679C1254.95 848.282 1251.11 865.357 1245.79 881.657C1234.48 916.306 1213.61 948.967 1183.88 976.152C1163.47 994.771 1142.3 1007.26 1114.44 996.047C1083.05 983.459 1061.11 957.119 1037.82 936.677C1021.86 922.663 1005.63 906.551 979.457 909.451C958.631 911.732 938.952 914.283 918.287 912.342C887.78 909.393 858.864 901.297 833.224 888.452C809.853 876.722 788.404 859.939 793.237 834.047C797.076 813.535 812.153 794.739 821.514 775.387C831.986 753.814 835.406 732.025 836.98 709.574C838.426 689.38 843.283 669.544 859.681 652.819C863.081 649.209 866.749 645.86 870.652 642.801C875.692 639.021 881.304 637.889 887.535 635.898C903.836 630.694 919.639 624.105 935.553 618.059Z" stroke="url(#paint8_linear_75_1683)"/>
<path d="M942.875 635.666C977.445 627.867 1011.65 626.908 1042.95 639.127C1056.33 644.348 1068.05 651.59 1080.66 657.836C1090.84 662.867 1100.31 667.646 1109.23 674.08C1130.37 689.356 1155.53 699.878 1175.13 716.791C1201.35 739.383 1219.68 768.047 1231.41 797.961C1237.14 812.594 1241.6 828.047 1242.83 843.931C1243.89 857.571 1239.63 871.889 1234.99 885.334C1225.9 911.69 1210.53 938.833 1187.92 959.924C1138.09 1006.41 1080.82 951.745 1048.4 924.414C1033.48 911.849 1014.87 891.671 991.029 890.721C973.982 890.014 957.093 891.149 940.258 889.124C895.01 883.559 838.659 863.821 835.232 820.473C833.756 801.921 841.174 782.936 844.794 764.432C848.517 745.408 848.649 726.606 849.174 707.595C849.674 689.829 852.847 675.015 867.308 660.176C874.219 653.085 884.059 651.224 893.927 648.392C910.154 643.747 926.497 639.372 942.875 635.666Z" stroke="url(#paint9_linear_75_1683)"/>
<path d="M951.256 651.293C1004.89 645.626 1067.65 657.098 1106.58 686.54C1152.39 721.216 1193.45 760.832 1214.31 810.32C1223.98 833.266 1232.16 858.952 1224.49 884.63C1218.65 904.15 1208.55 927.606 1189.93 942.012C1144.4 977.258 1091.55 935.528 1060.98 911.869C1044.52 899.13 1027.35 881.989 1005.97 874.543C993.574 870.207 978.499 870.078 965.36 867.318C925.53 858.979 890.039 838.083 876.646 804.735C870.459 789.31 869.575 772.503 868.16 756.078C866.697 739.26 864.064 722.509 863.602 705.561C863.213 692.048 864.131 675.784 879.844 667.031C899.617 656.001 929.353 653.603 951.256 651.293Z" stroke="url(#paint10_linear_75_1683)"/>
<path d="M963.508 665.652C1014.76 663.813 1067.42 673.199 1104.92 701.114C1124.81 715.914 1140.6 734.835 1156.06 752.934C1173.59 773.437 1188.69 795.636 1199.23 819.465C1212.35 849.132 1229.48 898.155 1190.15 924.648C1151.13 950.938 1103.53 919.284 1076.2 900.377C1058.7 888.254 1042.06 874.773 1023.43 863.639C1013.32 857.607 1002.39 853.706 991.15 849.241C960.045 836.899 932.607 815.276 914.885 790.817C897.7 767.099 885.121 735.705 882.13 707.075C880.833 694.723 884.023 684.909 898.044 677.743C917.565 667.797 942.334 666.409 963.508 665.652Z" stroke="url(#paint11_linear_75_1683)"/>
<path d="M980.548 678.77C1025.94 678.248 1070.28 689.875 1103.42 714.336C1140.56 741.749 1167.17 782.102 1185.02 820.764C1194.5 841.321 1217.42 885.29 1186.29 904.317C1155.15 923.345 1114.32 899.462 1091.65 885.507C1064.17 868.568 1037.05 849.706 1011.43 830.528C989.17 813.857 966.194 795.884 947.469 776.552C936.997 765.82 927.645 754.048 919.559 741.42C913.696 732.172 905.474 720.597 905.531 709.428C905.764 681.229 958.845 679.01 980.548 678.77Z" stroke="url(#paint12_linear_75_1683)"/>
<path d="M998.228 695.781C1084.76 697.752 1140.92 755.855 1170.37 817.65C1177.21 832.015 1198.99 871.65 1176.09 886.035C1153.91 899.976 1119.1 880.713 1102.64 871.733C1051.64 843.904 1009.37 804.6 967.989 767.666C955.067 756.136 928.236 736.177 933.806 716.747C939.887 695.601 980.275 695.337 998.228 695.781Z" stroke="url(#paint13_linear_75_1683)"/>
<path d="M1019.1 713.885C1083.51 718.181 1130.76 763.997 1153.91 810.936C1159.58 822.441 1175.56 851.269 1160.98 864.471C1147.53 876.675 1120.24 861.675 1109.51 856.184C1085.63 843.97 1064.5 827.784 1044.05 811.69C1025.15 796.81 1005.83 781.825 988.938 765.453C980.045 756.831 961.685 741.056 968.939 727.124C976.78 712.123 1004.8 712.936 1019.1 713.885Z" stroke="url(#paint14_linear_75_1683)"/>
<path d="M1042.36 733.814C1084.9 738.646 1119.35 770.486 1135.76 801.91C1140.17 810.362 1150.68 828.402 1142.02 838.484C1134.05 847.763 1117.25 839.863 1109.53 836.414C1075.35 821.153 1041.8 794.866 1018.88 768.917C1013.11 762.398 1002.08 750.827 1008.31 741.225C1014.7 731.377 1032.59 732.699 1042.36 733.814Z" stroke="url(#paint15_linear_75_1683)"/>
<path d="M1064.89 755.466C1086.24 758.805 1105.86 776.157 1114.66 792.306C1120.8 803.683 1121.46 818.948 1102.02 812.395C1082.57 805.841 1062.72 790.009 1051.98 775.088C1043.8 763.736 1046.56 752.594 1064.89 755.466Z" stroke="url(#paint16_linear_75_1683)"/>
<path d="M776.373 140.937C814.683 131.286 850.653 105.054 891.775 104C925.53 103.143 936.365 136.659 955.816 153.684C971.264 167.208 993.967 171.578 1015.74 175.699C1035.29 179.407 1055.17 182.172 1074.53 186.39C1087.05 189.112 1111.31 193.133 1114.49 204.738C1117.54 215.854 1102.79 230.209 1094.18 239.136C1082.96 250.767 1070.62 261.645 1059.13 273.089C1039.74 292.367 1026.89 313.025 1015.53 335.878C1002.61 361.884 990.394 388.099 978.893 414.523C970.388 433.994 961.975 453.553 952.065 472.677C945.854 484.673 934.977 510.471 919.187 514.347C911.647 516.19 901.889 512.324 894.915 509.81C883.117 505.555 871.96 500.16 861.008 494.686C840.6 484.503 820.848 473.524 800.887 462.767C775.012 448.791 749.684 435.591 721.469 424.609C692.271 413.271 662.431 402.876 632.863 392.08C612.791 384.774 590.673 377.968 576.129 364.011C557.939 346.515 567.907 326.231 563.105 305.304C558.976 287.308 610.113 276.522 623.712 270.895C637.472 265.203 649.59 256.985 663.446 251.623C680.766 244.924 699.079 240.532 717.026 235.633C738.992 229.64 760.021 224.326 763.818 202.957C765.995 190.794 764.165 178.625 764.321 166.53C764.402 158.688 764.272 143.985 776.373 140.937Z" stroke="url(#paint17_linear_75_1683)"/>
<path d="M785.31 148.15C817.083 138.596 855.672 117.664 891.428 120.277C921.99 122.502 932.359 149.742 951.793 165.119C967.822 177.813 989.628 179.979 1011.28 183.085C1028.65 185.587 1046.13 187.832 1063.19 191.292C1075.77 193.838 1096.8 197.296 1101.74 207.637C1106.17 216.942 1091.79 231.465 1084.51 239.004C1073.87 250.019 1061.88 260.116 1050.24 270.378C1029.78 288.407 1011.76 306.17 998.889 328.497C986.02 350.825 977.806 374.026 969.173 397.473C962.428 415.818 955.349 434.148 946.777 452.09C940.406 465.454 932.662 484.327 917.757 493.289C905.963 500.383 879.891 484.822 870.974 480.531C852.649 471.697 835.072 461.861 817.582 452C796.261 439.976 777.018 426.914 753.672 417.377C711.976 400.288 662.532 389.485 628.255 362.891C607.536 346.868 598.241 325.756 595.382 303.131C594.249 294.168 608.805 288.49 617.324 285.303C631.482 280.005 646.266 276.243 660.58 271.353C673.98 266.766 686.312 260.742 699.194 255.183C712.256 249.561 726.056 245.566 739.332 240.552C747.59 237.442 757.261 233.996 762.962 227.616C768.876 220.995 769.916 212.166 770.479 204.523C771.527 190.167 762.89 154.888 785.31 148.15Z" stroke="url(#paint18_linear_75_1683)"/>
<path d="M801.502 156.311C830.318 146.107 866.105 132.912 896.414 139.337C921.204 144.582 931.363 165.934 949.7 178.542C964.947 189.037 985.346 189.515 1004.76 191.904C1020.7 193.88 1036.69 195.838 1052.2 199.126C1063.95 201.611 1079.81 204.657 1085.85 213.712C1091.02 221.453 1079.19 234.411 1073.29 240.783C1063.23 251.652 1051.39 261.375 1039.71 271.005C1020.59 286.774 999.792 302.049 985.777 321.348C972.188 340.098 966.258 359.944 959.141 380.419C953.697 396.091 947.894 411.764 940.59 427.052C934.985 438.796 928.466 453.242 916.46 461.522C906.109 468.669 889.891 460.487 880.491 456.715C864.979 450.471 850.309 442.934 835.61 435.556C819.769 427.595 804.669 418.191 788.595 410.666C754.767 394.839 718.967 384.279 690.538 361.621C672.104 346.955 653.527 325.728 650.765 303.859C648.78 288.137 690.449 279.285 703.331 274.669C724.402 267.095 746.027 257.009 764.202 244.839C779.773 234.398 781.432 217.985 781.948 203.132C782.272 193.822 781.399 184.359 783.107 175.033C785.091 164.219 789.451 160.571 801.502 156.311Z" stroke="url(#paint19_linear_75_1683)"/>
<path d="M817.889 163.613C842.437 155.783 872.11 149.173 896.637 156.241C918.135 162.444 927.638 180.275 945.804 190.317C959.961 198.136 979.937 197.774 996.686 199.796C1017.17 202.272 1054.26 203.75 1065.51 219.609C1075.97 234.355 1038 261.417 1026.83 270.323C1009.19 284.394 989.267 297.395 973.632 313.105C960.166 326.625 954.58 341.782 948.475 357.911C940.712 378.47 932.894 408.714 911.815 423.76C896.091 434.943 864.772 418.16 850.85 413.163C836.308 407.949 819.914 405.333 805.76 399.762C783.415 390.973 762.841 373.009 746.815 357.953C731.221 343.31 713.185 323.777 709.255 303.9C706.673 290.836 730.511 282.609 741.763 276.966C757.775 268.984 771.713 260.105 780.558 246.059C789.557 231.76 791.862 216.887 793.312 201.479C794.038 193.582 793.978 184.77 797.406 177.04C801.124 168.583 808.45 166.622 817.889 163.613Z" stroke="url(#paint20_linear_75_1683)"/>
<path d="M835.367 173.109C856.997 168.073 880.996 166.636 900.506 174.673C916.761 181.361 925.115 195.891 941.585 202.083C954.62 206.989 971.304 207.094 985.553 209.059C1003.01 211.461 1033.02 213.59 1042.23 227.691C1051.22 241.462 1023.63 262.093 1012.83 270.758C997 283.455 979.709 294.802 963.942 307.557C951.571 317.567 944.509 327.874 938.103 340.89C930.573 356.177 923.097 376.785 907.23 387.765C895.746 395.694 872.686 388.605 860.495 386.929C852.321 385.813 844.077 384.972 835.611 385.451C829.021 385.819 823.14 387.095 816.929 385.096C801.297 380.068 795.197 362.342 787.766 351.085C777.904 336.144 766.989 320.404 761.619 303.599C758.293 293.235 768.861 285.08 775.758 277.097C783.922 267.659 788.605 255.928 793.923 245.373C800.992 231.456 804.103 217.406 807.255 202.882C808.675 196.331 809.807 188.759 814.332 182.882C819.047 176.751 827.565 174.925 835.367 173.109Z" stroke="url(#paint21_linear_75_1683)"/>
<path d="M851.423 183.624C870.059 181.385 888.937 183.741 904.362 191.635C916.208 197.679 924.409 207.523 937.833 211.428C950.352 215.077 963.931 216.462 976.95 218.842C990.727 221.36 1013.49 224.549 1019.89 236.39C1026.79 249.153 1008.28 264.651 998.005 273.239C985.036 284.084 970.526 293.432 956.856 303.621C946.911 311.043 938.046 319.809 930.513 329.669C922.808 339.777 916.193 352.56 904.022 359.623C893.217 365.891 877.578 362.687 865.505 364.338C852.604 366.098 839.881 371.423 827.421 367.134C801.731 358.308 797.429 321.824 792.127 301.647C786.869 281.75 796.703 262.402 805.847 243.113C811.887 230.365 816.502 217.492 821.883 204.624C827.357 191.52 835.023 185.598 851.423 183.624Z" stroke="url(#paint22_linear_75_1683)"/>
<path d="M864.8 193.765C892.55 193.663 911.092 209.574 934.207 218.545C953.143 225.908 988.818 226.325 997.769 244.175C1007.94 264.448 966.374 287.925 950.938 299.479C933.813 312.307 921.792 330.761 903.051 341.736C893.21 347.488 882.65 347.066 871.634 347.871C859.548 348.762 847.303 350.18 836.388 345.904C814.903 337.507 809.091 312.492 804.308 294.62C799.343 276.12 808.069 256.631 817.154 238.795C826.752 219.837 836.355 193.88 864.8 193.765Z" stroke="url(#paint23_linear_75_1683)"/>
<path d="M874.343 202.378C894.717 204.846 913.4 215.787 930.585 224.178C944.905 231.194 971.55 236.06 976.843 250.687C983.079 267.872 959.866 284.709 945.732 295.412C931.842 305.949 917.801 319.703 901.673 327.548C884.876 335.72 858.474 330.877 843.541 323.832C826.91 315.95 817.403 298.885 814.209 283.033C810.86 266.453 818.844 248.634 827.878 233.287C837.54 216.916 850.727 199.482 874.343 202.378Z" stroke="url(#paint24_linear_75_1683)"/>
<path d="M880.181 211.086C897.321 213.995 913.226 222.334 927.493 230.111C938.508 236.124 956.802 244.495 959.983 256.176C963.476 269.032 953.143 283.095 941.088 291.399C929.204 299.577 914.049 308.849 899.886 313.025C869.006 322.11 825.972 296.846 822.827 270.933C819.839 246.371 846.008 205.275 880.181 211.086Z" stroke="url(#paint25_linear_75_1683)"/>
<path d="M883.993 219.514C906.458 223.812 940.695 239.095 946.236 259.476C952.619 282.851 921.835 296.423 897.781 298.905C873.226 301.449 832.296 282.475 831.802 259.7C831.318 237.48 857.358 214.419 883.993 219.514Z" stroke="url(#paint26_linear_75_1683)"/>
<path d="M889.494 228.066C908.323 231.749 933.472 243.197 938.204 260.245C943.839 280.561 916.598 286.633 898.548 286.019C879.834 285.362 844.773 271.206 845.243 252.136C845.713 233.586 871.454 224.531 889.494 228.066Z" stroke="url(#paint27_linear_75_1683)"/>
<path d="M893.384 235.726C906.722 237.937 925.085 247.063 928.459 259.085C932.573 273.781 910.33 276.029 898.988 274.673C885.524 273.065 860.382 262.908 860.814 249.26C861.278 235.82 882.394 233.889 893.384 235.726Z" stroke="url(#paint28_linear_75_1683)"/>
<path d="M366.703 1098.45C334.568 1071.4 305.663 1039.05 276.925 1008.9C234.939 964.83 193.578 919.824 158.58 871.334C139.819 845.345 113.765 812.082 115.753 778.973C116.47 766.856 124.327 754.089 128.622 742.358C134.534 726.181 139.961 709.899 145.379 693.649C156.262 661.049 166.951 628.402 179.088 596.023C184.943 580.43 193.217 564.68 197.603 548.843C200.175 539.596 195.736 530.311 193.374 521.64C187.881 501.518 181.819 481.619 175.924 461.643C168.732 437.209 161.444 412.737 156.063 387.843C153.646 376.61 144.712 349.822 155.001 340.87C160.544 336.057 173.802 341.143 179.938 343.504C191.222 347.842 201.782 353.392 212.223 358.864C236.382 371.516 259.843 385.476 285.875 395.639C299.257 400.859 315.776 407.934 330.231 399.017C344.837 390 356.398 377.657 370.868 368.368C387.526 357.668 405.813 350.526 424.365 342.93C438.079 337.307 449.458 329.115 461.465 321.1C474.696 312.256 488.003 303.192 502.422 295.806C511.94 290.922 529.185 282.601 537.637 289.737C549.671 299.873 547.804 324.694 548.444 339.362C549.348 359.618 549.216 379.979 549.754 400.276C550.138 415.009 550.246 429.86 553.294 444.205C558.206 467.328 565.652 489.941 572.864 512.461C586.283 554.149 600.805 595.243 610.943 637.857C619.827 675.189 587.619 774.012 583.139 796.411C574.194 841.129 566.468 886.691 550.878 930.708C546.662 942.614 541.543 960.609 529.094 969.311C521.423 974.668 516.16 974.301 512.582 983.5C507.728 996.036 508.066 1010.55 507.575 1023.28C506.78 1043.76 506.842 1064.21 506.544 1084.68C506.036 1126.06 504.176 1167.47 502.765 1208.89C502.336 1221.42 505.01 1235.8 501.968 1248.37C500.049 1256.48 495.275 1256.79 488.403 1252.52C476.352 1245.03 467.685 1232.57 459.381 1222.3C447.221 1207.26 435.875 1191.73 424.625 1176.17C413.375 1160.61 402.303 1144.89 391.064 1129.34C383.655 1119 376.734 1106.9 366.703 1098.45Z" stroke="url(#paint29_linear_75_1683)"/>
<path d="M365.622 1070.16C332.986 1041.22 304.401 1007.27 276.614 974.607C241.047 932.798 206.735 889.557 179.649 843.033C163.751 815.721 145.669 783.331 148.721 750.828C149.792 739.184 156.081 729.272 161.114 718.355C166.864 705.908 171.827 693.227 176.675 680.571C186.65 654.527 196.043 628.367 204.854 602.089C209.55 588.164 216.53 572.413 215.906 558.09C215.429 546.708 209.443 535.059 205.956 524.335C199.688 505.025 193.367 485.73 187.296 466.352C180.287 444.009 173.389 421.558 168.23 398.724C165.349 385.992 157.803 364.758 165.689 353.39C172.563 343.477 210.958 364.482 218.134 368.079C240.604 379.278 262.382 391.509 285.902 401.316C299.775 407.12 316.652 414.194 333.182 414.098C347.278 414.012 361.077 404.427 372.582 397.964C387.005 389.878 402.184 382.508 416.113 373.792C428.521 366.018 438.791 355.864 449.551 346.615C461.38 336.394 473.403 326.032 486.881 317.324C495.179 311.983 509.086 303.094 519.221 307.379C530.92 312.334 529.772 336.417 530.569 346.072C532.125 365.582 532.226 385.251 532.798 404.915C533.771 437.485 535.144 468.446 544.014 499.719C555.567 540.477 569.5 580.618 581.586 621.23C586.053 636.23 591.454 651.26 594.136 666.684C595.673 675.539 594.002 682.946 587.871 689.763C579.508 699.07 577.751 716.314 574.669 728.807C569.834 748.23 565.673 767.732 561.428 787.201C552.025 829.956 543.473 873.295 528.156 915.362C523.32 928.676 517.994 943.814 507.515 955.36C501.666 961.783 494.647 962.172 487.917 966.83C479.073 972.991 477.63 986.669 476.266 994.97C473.558 1010.99 473.029 1027.13 472.731 1043.09C472.052 1079.17 474.42 1114.69 478.404 1150.27C479.346 1158.61 483.518 1191.34 463.073 1178.49C440.485 1164.29 425.214 1139.68 409.791 1120.33C395.888 1102.86 382.64 1085.24 365.622 1070.16Z" stroke="url(#paint30_linear_75_1683)"/>
<path d="M358.715 1021.08C329.504 993.521 304.918 961.181 281.24 929.625C252.516 891.369 225.559 851.559 205.649 809.021C193.15 782.287 181.298 752.353 184.322 722.124C186.417 701.496 200.722 682.481 209.028 662.813C217.334 643.144 224.7 622.975 230.037 602.744C233.346 590.185 236.51 576.772 232.77 564.564C223.692 534.88 211.983 505.859 202.602 476.207C196.38 456.6 190.402 436.893 186.018 416.818C183.362 404.7 178.532 388.324 183.746 375.787C189.504 361.94 277.676 407.429 287.329 411.42C311.526 421.38 343.241 432.93 371.947 423.06C399.425 413.613 417.512 396.69 436.268 377.91C446.957 367.247 474.561 334.722 493.011 339.961C503.555 342.956 504.415 360.884 505.724 369.182C508.294 385.554 509.406 402.172 510.873 418.677C513.031 442.79 513.504 467.96 517.544 491.752C520.363 508.298 525.668 524.329 529.592 540.676C535.199 564.079 540.549 587.537 545.864 611.006C550.323 630.72 555.251 650.487 557.613 670.622C559.09 683.138 558.108 693.141 551.191 704.011C545.178 713.474 543.322 726.026 540.656 736.896C536.254 754.853 532.493 772.869 528.603 790.866C520.453 828.544 512.743 866.529 500.204 903.727C494.485 920.698 487.469 948.632 465.909 957.415C458.141 960.618 454.863 962.337 451.809 969.892C447.47 980.597 447.148 992.287 447.047 1003.18C446.791 1028.57 453.555 1053.02 453.358 1078.36C453.254 1088.68 451.042 1102.64 436.414 1094.37C419.318 1084.73 407.116 1067.65 394.755 1054.16C388.601 1047.45 382.644 1040.38 375.612 1034.23C370.236 1029.58 363.913 1025.96 358.715 1021.08Z" stroke="url(#paint31_linear_75_1683)"/>
<path d="M350.7 957.638C326.128 931.611 305.658 901.861 286.588 872.412C265.433 839.688 246.238 805.582 232.954 769.558C223.776 744.691 216.376 717.627 219.921 690.523C222.171 673.381 232.227 659.729 239.568 643.693C250.664 619.493 258.055 594.406 249.151 570.612C239.166 543.927 230.025 516.96 221.728 489.709C216.707 473.228 211.939 456.673 208.696 439.807C206.641 429.139 204.168 415.344 207.825 404.761C212.726 390.597 283.252 422.635 293.3 426.332C318.226 435.484 343.297 440.591 371.416 440.363C394.362 440.176 409.048 425.914 422.82 411.53C431.376 402.592 451.772 375.422 466.473 378.908C474.584 380.817 477.04 392.832 478.937 399.193C482.55 411.258 484.739 423.719 487.327 436.026C491.134 454.211 499.099 472.631 500.626 491.196C504.033 532.331 508.223 573.172 513.592 614.104C516.546 636.664 519.749 659.302 520.544 682.169C520.828 690.387 521.084 698.867 519.305 707.138C518.143 712.462 514.861 715.985 512.611 720.785C501.932 743.627 500.04 770.571 495.413 794.542C489.255 826.4 483.336 858.368 474.643 890.019C470.044 906.683 465.682 929.454 451.607 943.51C447.363 947.757 443.066 947.401 438.734 950.465C433.743 953.994 433.691 961.12 433.192 965.835C432.05 976.555 436.576 1019.1 411.512 1004.96C399.579 998.191 390.555 988.114 380.446 979.695C376.784 976.652 373.13 973.702 368.62 971.51C361.166 967.805 356.328 963.574 350.7 957.638Z" stroke="url(#paint32_linear_75_1683)"/>
<path d="M342.563 889.946C300.225 837.103 264.428 771.867 252.708 706.049C248.818 684.167 247.433 659.952 257.159 637.859C262.916 624.853 270.26 613.765 270.134 599.788C270.031 589.695 265.11 579.983 261.928 570.569C257.31 556.935 252.821 543.254 248.561 529.517C243.303 512.481 238.283 495.319 234.63 477.855C232.025 465.392 227.562 448.361 233.135 435.663C239.771 420.513 293.024 442.399 302.228 445.076C324.519 451.567 345.407 454.859 369.745 452.058C376.84 451.25 384.581 452.37 391.447 450.354C398.458 448.315 403.92 443.194 408.712 438.561C414.998 432.503 428.776 413.367 438.723 415.545C444.22 416.779 446.959 425.51 449.1 429.883C453.127 438.079 456.28 446.615 459.917 454.962C466.104 469.121 478.29 481.725 481.58 496.642C490.404 536.72 484.94 580.803 485.948 621.908C486.53 646.348 487.604 670.824 486.364 695.397C485.97 703.169 485.55 711.177 483.596 718.941C482.226 724.363 478.488 728.528 476.739 733.655C470.011 753.355 468.136 774.61 465.223 794.73C461.483 820.842 457.972 846.992 453.54 873.097C450.744 889.463 449.751 909.885 441.098 925.471C434.776 936.857 430.695 931.075 421.565 928.036C416.909 926.482 413.056 928.009 408.182 928.01C401.259 928.012 395.483 924.715 390.255 921.581C383.029 917.261 376.388 910.798 368.085 907.84C365.166 906.8 362.04 907.615 359.511 906.811C352.189 904.465 346.575 894.908 342.563 889.946Z" stroke="url(#paint33_linear_75_1683)"/>
<path d="M337.546 824.246C308.332 780.117 285.463 728.741 277.985 676.533C275.403 658.398 274.927 639.584 279.309 621.038C281.298 612.613 284.159 605.954 282.421 597.64C278.384 578.37 271.986 559.588 266.993 540.539C263.424 526.903 260.03 513.159 258.125 499.171C256.849 489.815 254.982 477.195 260.046 468.073C267.423 454.822 305.988 466.41 316.297 468.18C333.396 471.11 352.223 473.586 369.569 466.68C374.866 464.563 379.386 461.983 384.944 460.47C389.717 459.148 394.276 458.587 398.546 456.089C403.844 452.999 410.857 443.207 416.75 444.6C420.801 445.537 422.205 450.851 424.199 454.133C427.472 459.517 431.258 464.573 435.504 469.23C440.038 474.201 446.103 477.904 450.133 483.219C456.67 491.828 459.626 502.508 462.014 512.635C471.541 553.019 471.544 596.22 470.73 637.978C470.314 659.734 469.574 681.677 466.274 703.487C465.274 710.115 464.46 717.547 461.219 723.938C459.204 727.924 456.241 731.052 455.015 735.28C444.665 771.757 446.83 810.571 441.952 847.836C440.686 857.544 435.306 910.913 413.09 888.961C399.586 875.627 391.207 860.132 374.431 849.024C369.338 845.642 365.278 843.537 358.668 843.316C354.274 843.177 357.01 845.375 351.801 842.631C345.53 839.356 340.941 829.359 337.546 824.246Z" stroke="url(#paint34_linear_75_1683)"/>
<path d="M336.068 771.493C308.099 717.905 293.122 658.492 292.344 598.049C292.127 582.786 287.766 567.888 285.105 553.024C282.502 538.587 274.839 513.639 285.769 500.101C293.671 490.248 316.227 493.527 327.753 493.763C342.425 494.066 357.443 493.805 369.468 484.717C376.509 479.402 382.869 472.887 389.775 467.337C393.073 464.678 397.934 459.667 401.79 460.358C408.193 461.489 413.439 472.674 417.543 477.722C430.641 493.884 437.466 512.674 442.048 532.192C450.503 568.241 453.092 605.884 453.348 643.166C453.46 660.311 453.375 677.748 450.581 694.964C448.997 704.717 443.439 712.953 441.226 722.426C434.121 752.945 433.826 783.985 427.985 814.693C426.292 823.58 421.441 856.427 403.714 844.68C386.547 833.299 383.099 811.572 366.605 799.42C364.731 798.076 362.46 796.338 359.83 795.904C358.264 795.651 355.808 797.338 354.882 797.079C344.956 794.517 339.609 778.244 336.068 771.493Z" stroke="url(#paint35_linear_75_1683)"/>
<path d="M336.907 732.551C325.135 704.68 316.881 675.296 309.554 645.849C305.543 629.754 300.074 612.317 301.312 595.365C302.175 585.09 302.435 574.773 302.091 564.467C301.65 553.207 299.021 535.53 308.756 526.296C316.033 519.391 334.188 518.615 344.496 516.353C355.798 513.869 363.701 509.993 370.204 501.567C374.328 496.26 388.259 473.104 394.077 474.009C399.626 474.869 403.52 487.769 406.19 493.149C414.607 510.04 420.373 527.816 424.47 546.058C430.747 574.469 434.145 603.441 434.613 632.534C434.834 644.595 435.06 657.06 432.66 669.203C431.042 677.379 426.521 684.955 424.775 693.112C419.762 716.468 418.25 740.27 413.074 763.75C411.404 771.29 407.923 795.372 393.225 793.291C380.962 791.561 373.992 777.403 364.722 771.836C348.909 762.384 343.367 747.877 336.907 732.551Z" stroke="url(#paint36_linear_75_1683)"/>
<path d="M339.002 712.734C330.344 690.293 323.218 667.29 317.672 643.884C314.035 628.814 310 612.961 310.624 597.18C310.926 589.254 314.246 581.641 316.041 573.781C317.882 565.691 319.477 554.745 326.898 549.669C333.88 544.9 345.343 543.36 353.976 538.554C361.647 534.302 365.574 528.287 369.879 521.785C372.649 517.636 383.973 497.043 387.831 498.196C391.968 499.429 394.082 509.683 395.851 514.854C400.72 529.1 404.653 543.649 407.622 558.409C411.596 578.566 414.323 599.181 414.265 619.925C414.239 634.645 408.753 647.025 406.005 661.413C402.41 680.032 400.553 698.882 396.206 717.513C394.04 726.792 391.635 740.344 381.968 747.15C378.268 749.756 368.228 753.819 363.705 752.981C358.26 751.959 354.245 744.326 352.063 740.787C346.625 731.896 342.699 722.197 339.002 712.734Z" stroke="url(#paint37_linear_75_1683)"/>
</g>
<defs>
<linearGradient id="paint0_linear_75_1683" x1="457" y1="941.205" x2="1426.2" y2="659.298" gradientUnits="userSpaceOnUse">
<stop stop-color="#4DA5DD"/>
<stop offset="1" stop-color="#47A6E0" stop-opacity="0"/>
</linearGradient>
<linearGradient id="paint1_linear_75_1683" x1="3.94368e+06" y1="-248306" x2="4.88499e+06" y2="-522098" gradientUnits="userSpaceOnUse">
<stop stop-color="#4DA5DD"/>
<stop offset="1" stop-color="#47A6E0" stop-opacity="0"/>
</linearGradient>
<linearGradient id="paint2_linear_75_1683" x1="3.65699e+06" y1="-235749" x2="4.44341e+06" y2="-464490" gradientUnits="userSpaceOnUse">
<stop stop-color="#4DA5DD"/>
<stop offset="1" stop-color="#47A6E0" stop-opacity="0"/>
</linearGradient>
<linearGradient id="paint3_linear_75_1683" x1="3.32826e+06" y1="-223402" x2="3.9646e+06" y2="-408489" gradientUnits="userSpaceOnUse">
<stop stop-color="#4DA5DD"/>
<stop offset="1" stop-color="#47A6E0" stop-opacity="0"/>
</linearGradient>
<linearGradient id="paint4_linear_75_1683" x1="3.01522e+06" y1="-209091" x2="3.5224e+06" y2="-356612" gradientUnits="userSpaceOnUse">
<stop stop-color="#4DA5DD"/>
<stop offset="1" stop-color="#47A6E0" stop-opacity="0"/>
</linearGradient>
<linearGradient id="paint5_linear_75_1683" x1="2.74031e+06" y1="-196922" x2="3.14915e+06" y2="-315839" gradientUnits="userSpaceOnUse">
<stop stop-color="#4DA5DD"/>
<stop offset="1" stop-color="#47A6E0" stop-opacity="0"/>
</linearGradient>
<linearGradient id="paint6_linear_75_1683" x1="2.5004e+06" y1="-183195" x2="2.83453e+06" y2="-280385" gradientUnits="userSpaceOnUse">
<stop stop-color="#4DA5DD"/>
<stop offset="1" stop-color="#47A6E0" stop-opacity="0"/>
</linearGradient>
<linearGradient id="paint7_linear_75_1683" x1="2.3029e+06" y1="-178125" x2="2.58325e+06" y2="-259669" gradientUnits="userSpaceOnUse">
<stop stop-color="#4DA5DD"/>
<stop offset="1" stop-color="#47A6E0" stop-opacity="0"/>
</linearGradient>
<linearGradient id="paint8_linear_75_1683" x1="2.05723e+06" y1="-151836" x2="2.27625e+06" y2="-215539" gradientUnits="userSpaceOnUse">
<stop stop-color="#4DA5DD"/>
<stop offset="1" stop-color="#47A6E0" stop-opacity="0"/>
</linearGradient>
<linearGradient id="paint9_linear_75_1683" x1="1.78615e+06" y1="-111347" x2="1.94642e+06" y2="-157965" gradientUnits="userSpaceOnUse">
<stop stop-color="#4DA5DD"/>
<stop offset="1" stop-color="#47A6E0" stop-opacity="0"/>
</linearGradient>
<linearGradient id="paint10_linear_75_1683" x1="1.51661e+06" y1="-67728.1" x2="1.62856e+06" y2="-100289" gradientUnits="userSpaceOnUse">
<stop stop-color="#4DA5DD"/>
<stop offset="1" stop-color="#47A6E0" stop-opacity="0"/>
</linearGradient>
<linearGradient id="paint11_linear_75_1683" x1="1.31096e+06" y1="-44245" x2="1.39288e+06" y2="-68071.5" gradientUnits="userSpaceOnUse">
<stop stop-color="#4DA5DD"/>
<stop offset="1" stop-color="#47A6E0" stop-opacity="0"/>
</linearGradient>
<linearGradient id="paint12_linear_75_1683" x1="1.14953e+06" y1="-38699.1" x2="1.21184e+06" y2="-56820.2" gradientUnits="userSpaceOnUse">
<stop stop-color="#4DA5DD"/>
<stop offset="1" stop-color="#47A6E0" stop-opacity="0"/>
</linearGradient>
<linearGradient id="paint13_linear_75_1683" x1="983286" y1="-33963.3" x2="1.02841e+06" y2="-47088.6" gradientUnits="userSpaceOnUse">
<stop stop-color="#4DA5DD"/>
<stop offset="1" stop-color="#47A6E0" stop-opacity="0"/>
</linearGradient>
<linearGradient id="paint14_linear_75_1683" x1="778306" y1="-24498.9" x2="806149" y2="-32597.7" gradientUnits="userSpaceOnUse">
<stop stop-color="#4DA5DD"/>
<stop offset="1" stop-color="#47A6E0" stop-opacity="0"/>
</linearGradient>
<linearGradient id="paint15_linear_75_1683" x1="545094" y1="-16212.3" x2="558545" y2="-20124.6" gradientUnits="userSpaceOnUse">
<stop stop-color="#4DA5DD"/>
<stop offset="1" stop-color="#47A6E0" stop-opacity="0"/>
</linearGradient>
<linearGradient id="paint16_linear_75_1683" x1="283641" y1="-6853.54" x2="287229" y2="-7897.32" gradientUnits="userSpaceOnUse">
<stop stop-color="#4DA5DD"/>
<stop offset="1" stop-color="#47A6E0" stop-opacity="0"/>
</linearGradient>
<linearGradient id="paint17_linear_75_1683" x1="2.41714e+06" y1="-519893" x2="2.75731e+06" y2="-618838" gradientUnits="userSpaceOnUse">
<stop stop-color="#4DA5DD"/>
<stop offset="1" stop-color="#47A6E0" stop-opacity="0"/>
</linearGradient>
<linearGradient id="paint18_linear_75_1683" x1="2.21654e+06" y1="-478020" x2="2.4971e+06" y2="-559624" gradientUnits="userSpaceOnUse">
<stop stop-color="#4DA5DD"/>
<stop offset="1" stop-color="#47A6E0" stop-opacity="0"/>
</linearGradient>
<linearGradient id="paint19_linear_75_1683" x1="1.93827e+06" y1="-420176" x2="2.1473e+06" y2="-480976" gradientUnits="userSpaceOnUse">
<stop stop-color="#4DA5DD"/>
<stop offset="1" stop-color="#47A6E0" stop-opacity="0"/>
</linearGradient>
<linearGradient id="paint20_linear_75_1683" x1="1.62153e+06" y1="-353872" x2="1.76396e+06" y2="-395300" gradientUnits="userSpaceOnUse">
<stop stop-color="#4DA5DD"/>
<stop offset="1" stop-color="#47A6E0" stop-opacity="0"/>
</linearGradient>
<linearGradient id="paint21_linear_75_1683" x1="1.30442e+06" y1="-285606" x2="1.39444e+06" y2="-311788" gradientUnits="userSpaceOnUse">
<stop stop-color="#4DA5DD"/>
<stop offset="1" stop-color="#47A6E0" stop-opacity="0"/>
</linearGradient>
<linearGradient id="paint22_linear_75_1683" x1="1.07493e+06" y1="-237635" x2="1.13532e+06" y2="-255203" gradientUnits="userSpaceOnUse">
<stop stop-color="#4DA5DD"/>
<stop offset="1" stop-color="#47A6E0" stop-opacity="0"/>
</linearGradient>
<linearGradient id="paint23_linear_75_1683" x1="906357" y1="-200992" x2="949026" y2="-213403" gradientUnits="userSpaceOnUse">
<stop stop-color="#4DA5DD"/>
<stop offset="1" stop-color="#47A6E0" stop-opacity="0"/>
</linearGradient>
<linearGradient id="paint24_linear_75_1683" x1="751357" y1="-165856" x2="780511" y2="-174336" gradientUnits="userSpaceOnUse">
<stop stop-color="#4DA5DD"/>
<stop offset="1" stop-color="#47A6E0" stop-opacity="0"/>
</linearGradient>
<linearGradient id="paint25_linear_75_1683" x1="619956" y1="-137603" x2="639718" y2="-143352" gradientUnits="userSpaceOnUse">
<stop stop-color="#4DA5DD"/>
<stop offset="1" stop-color="#47A6E0" stop-opacity="0"/>
</linearGradient>
<linearGradient id="paint26_linear_75_1683" x1="504943" y1="-112716" x2="518004" y2="-116515" gradientUnits="userSpaceOnUse">
<stop stop-color="#4DA5DD"/>
<stop offset="1" stop-color="#47A6E0" stop-opacity="0"/>
</linearGradient>
<linearGradient id="paint27_linear_75_1683" x1="401893" y1="-90266.4" x2="410126" y2="-92661" gradientUnits="userSpaceOnUse">
<stop stop-color="#4DA5DD"/>
<stop offset="1" stop-color="#47A6E0" stop-opacity="0"/>
</linearGradient>
<linearGradient id="paint28_linear_75_1683" x1="288772" y1="-64897" x2="293000" y2="-66126.7" gradientUnits="userSpaceOnUse">
<stop stop-color="#4DA5DD"/>
<stop offset="1" stop-color="#47A6E0" stop-opacity="0"/>
</linearGradient>
<linearGradient id="paint29_linear_75_1683" x1="2.18299e+06" y1="150326" x2="2.50297e+06" y2="57256.6" gradientUnits="userSpaceOnUse">
<stop stop-color="#4DA5DD"/>
<stop offset="1" stop-color="#47A6E0" stop-opacity="0"/>
</linearGradient>
<linearGradient id="paint30_linear_75_1683" x1="1.96278e+06" y1="108182" x2="2.218e+06" y2="33947" gradientUnits="userSpaceOnUse">
<stop stop-color="#4DA5DD"/>
<stop offset="1" stop-color="#47A6E0" stop-opacity="0"/>
</linearGradient>
<linearGradient id="paint31_linear_75_1683" x1="1.68226e+06" y1="73779.2" x2="1.86668e+06" y2="20139.8" gradientUnits="userSpaceOnUse">
<stop stop-color="#4DA5DD"/>
<stop offset="1" stop-color="#47A6E0" stop-opacity="0"/>
</linearGradient>
<linearGradient id="paint32_linear_75_1683" x1="1.38574e+06" y1="46157.5" x2="1.50881e+06" y2="10360.5" gradientUnits="userSpaceOnUse">
<stop stop-color="#4DA5DD"/>
<stop offset="1" stop-color="#47A6E0" stop-opacity="0"/>
</linearGradient>
<linearGradient id="paint33_linear_75_1683" x1="1.14922e+06" y1="31198.2" x2="1.23251e+06" y2="6974.07" gradientUnits="userSpaceOnUse">
<stop stop-color="#4DA5DD"/>
<stop offset="1" stop-color="#47A6E0" stop-opacity="0"/>
</linearGradient>
<linearGradient id="paint34_linear_75_1683" x1="938213" y1="39397.5" x2="992317" y2="23660.6" gradientUnits="userSpaceOnUse">
<stop stop-color="#4DA5DD"/>
<stop offset="1" stop-color="#47A6E0" stop-opacity="0"/>
</linearGradient>
<linearGradient id="paint35_linear_75_1683" x1="740661" y1="37318.9" x2="773791" y2="27682.5" gradientUnits="userSpaceOnUse">
<stop stop-color="#4DA5DD"/>
<stop offset="1" stop-color="#47A6E0" stop-opacity="0"/>
</linearGradient>
<linearGradient id="paint36_linear_75_1683" x1="588256" y1="28574.6" x2="609013" y2="22537.1" gradientUnits="userSpaceOnUse">
<stop stop-color="#4DA5DD"/>
<stop offset="1" stop-color="#47A6E0" stop-opacity="0"/>
</linearGradient>
<linearGradient id="paint37_linear_75_1683" x1="471460" y1="14833.3" x2="484883" y2="10928.9" gradientUnits="userSpaceOnUse">
<stop stop-color="#4DA5DD"/>
<stop offset="1" stop-color="#47A6E0" stop-opacity="0"/>
</linearGradient>
<clipPath id="clip0_75_1683">
<rect width="1296" height="1171" fill="white" transform="translate(-10 361.96) rotate(-16.2178)"/>
</clipPath>
</defs>
</svg>
