<svg width="64" height="64" viewBox="0 0 64 64" fill="none" xmlns="http://www.w3.org/2000/svg">
<g clip-path="url(#clip0_301_7360)">
<path d="M31.55 63.1C48.9746 63.1 63.1 48.9746 63.1 31.55C63.1 14.1254 48.9746 0 31.55 0C14.1254 0 0 14.1254 0 31.55C0 48.9746 14.1254 63.1 31.55 63.1Z" fill="#2D2A2C"/>
<path d="M29.29 36.7L31.55 38.95L43.45 27.04" stroke="white" stroke-width="1.5" stroke-linecap="round" stroke-linejoin="round"/>
<path d="M32.8998 32.9C32.4513 32.8157 31.9962 32.7722 31.5398 32.77C28.1098 32.77 25.3198 35.01 25.3198 37.77C25.3198 40.53 28.1098 42.77 31.5398 42.77C34.9698 42.77 37.7698 40.53 37.7698 37.77C37.7751 37.6668 37.7751 37.5633 37.7698 37.46" stroke="white" stroke-width="1.5" stroke-linecap="round" stroke-linejoin="round"/>
<path d="M39.6602 26.1399C36.0702 19.4299 31.5402 12.8799 31.5402 12.8799C31.5402 12.8799 19.1002 30.8799 19.1002 37.7699C19.053 39.4339 19.34 41.0904 19.9442 42.6416C20.5484 44.1927 21.4576 45.6069 22.6179 46.8006C23.7781 47.9942 25.166 48.943 26.6994 49.591C28.2328 50.2389 29.8805 50.5727 31.5452 50.5727C33.2098 50.5727 34.8576 50.2389 36.391 49.591C37.9244 48.943 39.3123 47.9942 40.4726 46.8006C41.6328 45.6069 42.542 44.1927 43.1462 42.6416C43.7504 41.0904 44.0374 39.4339 43.9902 37.7699C43.8599 35.9574 43.4167 34.1811 42.6802 32.5199" stroke="white" stroke-width="1.5" stroke-linecap="round" stroke-linejoin="round"/>
</g>
<defs>
<clipPath id="clip0_301_7360">
<rect width="63.09" height="63.09" fill="white"/>
</clipPath>
</defs>
</svg>
