<svg width="64" height="64" viewBox="0 0 64 64" fill="none" xmlns="http://www.w3.org/2000/svg">
<circle cx="31.5463" cy="31.5463" r="31.5463" fill="#2D2A2C"/>
<path d="M31.5876 49.8504C31.7542 49.8984 31.9309 49.8984 32.0975 49.8504C40.1587 47.529 45.7613 40.0726 45.7613 31.5674V20.565C45.7613 20.1815 45.4504 19.8705 45.0668 19.8705H41.7954C41.6102 19.8705 41.4327 19.7966 41.3023 19.6652L39.854 18.2054C39.7236 18.0739 39.5461 18 39.361 18H24.3242C24.139 18 23.9616 18.0739 23.8312 18.2054L22.3828 19.6652C22.2524 19.7966 22.0749 19.8705 21.8898 19.8705H18.6183C18.2348 19.8705 17.9238 20.1815 17.9238 20.565V31.5674C17.9238 40.018 23.4736 47.5138 31.5876 49.8504ZM19.7797 22.4356C19.7797 22.052 20.0906 21.7411 20.4742 21.7411H22.6585C22.8436 21.7411 23.0211 21.6671 23.1515 21.5357L24.5998 20.0759C24.7302 19.9445 24.9077 19.8705 25.0929 19.8705H38.5923C38.7774 19.8705 38.9549 19.9445 39.0853 20.0759L40.5336 21.5357C40.664 21.6671 40.8415 21.7411 41.0267 21.7411H43.211C43.5945 21.7411 43.9055 22.052 43.9055 22.4356V31.5674C43.9055 38.9156 39.1913 45.4835 32.3474 47.8133C32.0203 47.9246 31.6648 47.9246 31.3377 47.8133C24.4939 45.4835 19.7797 38.9156 19.7797 31.5674V22.4356Z" fill="white"/>
<path fill-rule="evenodd" clip-rule="evenodd" d="M29.7131 23.0543C28.1407 23.4749 26.8566 24.7854 26.4409 26.3938C26.3495 26.7477 26.3109 27.3202 26.3109 28.3252V29.7537L26.077 29.8011C25.7462 29.8682 25.1636 30.2826 24.9061 30.6339C24.4687 31.2309 24.4162 31.6398 24.4615 34.0952C24.4973 36.0262 24.5279 36.4261 24.6853 37.018C24.9012 37.8295 25.3173 38.7445 25.7843 39.4344C26.1693 40.0032 27.0953 40.924 27.6994 41.339C29.7027 42.7148 32.5533 42.9458 34.7732 41.9122C36.7648 40.9848 38.2447 39.1963 38.823 37.018C38.9785 36.4322 39.0111 36.0197 39.0469 34.1868C39.0935 31.7976 39.0357 31.292 38.6496 30.7126C38.3857 30.3166 37.7954 29.8749 37.4317 29.8011L37.1978 29.7537L37.1965 28.3715C37.1956 27.4434 37.1531 26.8093 37.067 26.441C36.6839 24.803 35.3828 23.4699 33.7565 23.049C33.0699 22.8714 30.3839 22.8749 29.7131 23.0543ZM33.6607 24.8083C34.278 25.041 34.9177 25.6314 35.216 26.2434C35.4443 26.712 35.4554 26.7934 35.4825 28.2108L35.5107 29.6894H31.7544H27.998L28.0262 28.2108C28.0533 26.7934 28.0644 26.712 28.2927 26.2434C28.5854 25.6428 29.226 25.0441 29.8238 24.8125C30.202 24.6659 30.4775 24.6405 31.7299 24.6366C33.0053 24.6328 33.254 24.6549 33.6607 24.8083ZM37.1591 31.6141C37.3672 31.8238 37.3679 31.8304 37.3679 33.5793C37.3679 34.5444 37.3265 35.6334 37.2761 35.9994C37.0175 37.8729 35.8713 39.4552 34.1784 40.2755C33.2601 40.7204 32.7652 40.8327 31.7289 40.831C30.7335 40.8294 30.0308 40.6613 29.2006 40.226C28.0321 39.6133 27.0701 38.5622 26.5884 37.372C26.2415 36.5147 26.147 35.7331 26.1438 33.6927L26.1408 31.8244L26.3496 31.6141L26.5584 31.4037H31.7544H36.9503L37.1591 31.6141ZM31.185 34.1818L30.9463 34.3884L30.9192 35.7682L30.8921 37.1479L31.1466 37.4044C31.4789 37.7393 31.9707 37.7599 32.3237 37.454L32.5624 37.2471V35.818V34.3889L32.3237 34.1819C32.0002 33.9015 31.5087 33.9014 31.185 34.1818Z" fill="white"/>
<g clip-path="url(#clip0_301_7456)">
<path d="M31.55 63.1C48.9746 63.1 63.1 48.9746 63.1 31.55C63.1 14.1254 48.9746 0 31.55 0C14.1254 0 0 14.1254 0 31.55C0 48.9746 14.1254 63.1 31.55 63.1Z" fill="#2D2A2C"/>
<path d="M12.5698 28.02H21.3798V30.17C21.3798 30.8596 21.6538 31.5209 22.1414 32.0085C22.629 32.4961 23.2903 32.77 23.9799 32.77H39.1498C39.4916 32.7713 39.8303 32.705 40.1464 32.5748C40.4624 32.4446 40.7496 32.2532 40.9913 32.0115C41.233 31.7698 41.4244 31.4826 41.5546 31.1666C41.6848 30.8505 41.7511 30.5118 41.7498 30.17V28.02H50.5598" stroke="white" stroke-width="1.5" stroke-linecap="round" stroke-linejoin="round"/>
<path d="M50.5198 20.65H41.7098V18.5C41.7098 17.8105 41.4359 17.1491 40.9483 16.6615C40.4607 16.174 39.7994 15.9 39.1099 15.9H23.9799C23.2911 15.9027 22.6313 16.1774 22.1443 16.6645C21.6573 17.1515 21.3825 17.8113 21.3798 18.5V20.65H12.5698" stroke="white" stroke-width="1.5" stroke-linecap="round" stroke-linejoin="round"/>
<path d="M34.4202 42.66C33.1502 40.28 31.5502 37.96 31.5502 37.96C31.5502 37.96 27.1401 44.35 27.1401 46.78C27.1401 47.9496 27.6048 49.0713 28.4318 49.8983C29.2589 50.7253 30.3806 51.19 31.5502 51.19C32.7198 51.19 33.8414 50.7253 34.6685 49.8983C35.4955 49.0713 35.9601 47.9496 35.9601 46.78C35.9132 46.1384 35.7577 45.5094 35.5001 44.92L34.4202 42.66Z" stroke="white" stroke-width="1.5" stroke-linecap="round" stroke-linejoin="round"/>
<path d="M40.6801 24.34C40.2819 24.3401 39.8876 24.2609 39.5204 24.107C39.1531 23.9531 38.8201 23.7276 38.5409 23.4438C38.2616 23.1599 38.0417 22.8232 37.8939 22.4534C37.7461 22.0837 37.6735 21.6882 37.6801 21.29" stroke="white" stroke-width="1.5" stroke-linecap="round" stroke-linejoin="round"/>
<path d="M37.6398 21.29C37.6398 22.0976 37.319 22.8721 36.7479 23.4432C36.1769 24.0142 35.4024 24.335 34.5948 24.335C33.7872 24.335 33.0127 24.0142 32.4417 23.4432C31.8706 22.8721 31.5498 22.0976 31.5498 21.29" stroke="white" stroke-width="1.5" stroke-linecap="round" stroke-linejoin="round"/>
<path d="M31.55 21.29C31.55 22.0976 31.2291 22.8721 30.6581 23.4432C30.087 24.0142 29.3125 24.335 28.5049 24.335C27.6974 24.335 26.9229 24.0142 26.3518 23.4432C25.7808 22.8721 25.46 22.0976 25.46 21.29" stroke="white" stroke-width="1.5" stroke-linecap="round" stroke-linejoin="round"/>
<path d="M25.46 21.29C25.4666 21.6882 25.3939 22.0837 25.2461 22.4534C25.0983 22.8232 24.8784 23.1599 24.5992 23.4438C24.3199 23.7276 23.987 23.9531 23.6197 24.107C23.2524 24.2609 22.8582 24.3401 22.46 24.34" stroke="white" stroke-width="1.5" stroke-linecap="round" stroke-linejoin="round"/>
</g>
<defs>
<clipPath id="clip0_301_7456">
<rect width="63.09" height="63.09" fill="white"/>
</clipPath>
</defs>
</svg>
